<?xml version="1.0" encoding="UTF-8"?>
<svg id="Ebene_1" xmlns="http://www.w3.org/2000/svg" viewBox="0 0 819.28 115.89">
  <defs>
    <style>
      .cls-1 {
        fill: #ff5000;
      }
    </style>
  </defs>
  <path class="cls-1" d="M105.06,57.62c0,33.16-25.12,56.14-60.25,56.14H0V2.13h44.81c35.13,0,60.25,22.82,60.25,55.49ZM76.99,57.62c0-17.24-13.95-30.53-32.18-30.53h-17.07v61.72h17.07c18.22,0,32.18-13.46,32.18-31.19Z"/>
  <path class="cls-1" d="M146.59,2.13v111.63h-27.74V2.13h27.74Z"/>
  <path class="cls-1" d="M246.88,67.47h28.56c-3.61,28.89-25.61,48.43-55.98,48.43-33.65,0-59.1-24.29-59.1-57.95S185.82,0,219.47,0c30.37,0,52.37,19.53,55.98,48.43h-28.56c-2.96-13.95-12.8-22.49-27.58-22.49-18.22,0-30.86,13.46-30.86,32.01s12.64,32.01,30.86,32.01c14.77,0,24.62-8.54,27.58-22.49Z"/>
  <path class="cls-1" d="M404.8,57.95c0,32.5-25.44,57.95-59.1,57.95s-59.1-25.44-59.1-57.95S312.05,0,345.7,0s59.1,25.44,59.1,57.95ZM376.73,57.95c0-17.56-12.97-32.01-31.03-32.01s-31.03,14.45-31.03,32.01,12.97,32.01,31.03,32.01,31.03-14.45,31.03-32.01Z"/>
  <path class="cls-1" d="M521.18,2.13v111.63h-21.34l-53.52-61.23v61.23h-27.74V2.13h21.18l53.84,62.87V2.13h27.58Z"/>
  <path class="cls-1" d="M565.34,2.13v111.63h-27.74V2.13h27.74Z"/>
  <path class="cls-1" d="M684.02,61.72c0,34.64-20.03,54.17-52.04,54.17s-51.87-19.53-51.87-54.17V2.13h27.91v60.08c0,17.07,9.36,27.74,23.97,27.74s24.13-10.67,24.13-27.74V2.13h27.91v59.59Z"/>
  <path class="cls-1" d="M819.28,113.76h-27.74v-55.98l-24.79,38.25v.16h-15.43v-.16l-24.95-38.58.16,56.3h-27.74V2.13h20.68l39.56,59.59,39.56-59.59h20.68v111.63Z"/>
</svg>