<?xml version="1.0" standalone="no"?>
<!DOCTYPE svg PUBLIC "-//W3C//DTD SVG 1.1//EN" "http://www.w3.org/Graphics/SVG/1.1/DTD/svg11.dtd" >
<svg xmlns="http://www.w3.org/2000/svg">
<metadata>Generated by IcoMoon</metadata>
<defs>
<font id="icomoon" horiz-adv-x="1024">
<font-face units-per-em="1024" ascent="960" descent="-64" />
<missing-glyph horiz-adv-x="1024" />
<glyph unicode="&#x20;" horiz-adv-x="512" d="" />
<glyph unicode="&#xe900;" glyph-name="tb-address-book" d="M262.889 874.667h370.22c22.494 0.001 41.899 0.001 57.877-1.304 16.87-1.378 33.647-4.421 49.792-12.647 24.085-12.272 43.665-31.853 55.936-55.938 8.226-16.144 11.268-32.922 12.646-49.789 1.306-15.982 1.306-35.385 1.306-57.876v-498.225c0-22.49 0-41.894-1.306-57.873-1.378-16.87-4.42-33.647-12.646-49.792-12.271-24.085-31.851-43.665-55.936-55.936-16.145-8.226-32.922-11.268-49.792-12.646-15.979-1.306-35.383-1.306-57.873-1.306h-370.226c-22.491 0-41.894 0-57.876 1.306-16.868 1.378-33.645 4.42-49.789 12.646-24.084 12.271-43.666 31.851-55.938 55.936-8.226 16.145-11.269 32.922-12.647 49.792-1.306 15.979-1.305 35.383-1.304 57.877v498.22c-0.001 22.492-0.001 41.895 1.304 57.877 1.378 16.868 4.421 33.645 12.647 49.789 12.272 24.085 31.853 43.666 55.938 55.938 16.144 8.226 32.922 11.269 49.789 12.647 15.982 1.306 35.385 1.305 57.877 1.304zM211.961 788.312c-11.591-0.947-15.888-2.554-17.998-3.63-8.028-4.090-14.555-10.618-18.646-18.646-1.075-2.11-2.683-6.407-3.63-17.998-0.988-12.089-1.021-27.973-1.021-52.572v-494.933c0-24.602 0.033-40.482 1.021-52.574 0.947-11.588 2.554-15.885 3.63-17.997 4.090-8.030 10.618-14.554 18.646-18.645 2.11-1.075 6.407-2.684 17.998-3.631 12.089-0.986 27.973-1.020 52.572-1.020h366.933c24.602 0 40.482 0.034 52.574 1.020 11.588 0.947 15.885 2.556 17.997 3.631 8.030 4.092 14.554 10.615 18.645 18.645 1.075 2.112 2.684 6.409 3.631 17.997 0.986 12.092 1.020 27.972 1.020 52.574v494.933c0 24.599-0.034 40.483-1.020 52.572-0.947 11.591-2.556 15.888-3.631 17.998-4.092 8.028-10.615 14.555-18.645 18.646-2.112 1.075-6.409 2.683-17.997 3.63-12.092 0.988-27.972 1.021-52.574 1.021h-366.933c-24.599 0-40.483-0.033-52.572-1.021zM896 789.333c23.565 0 42.667-19.103 42.667-42.667v-85.333c0-23.564-19.102-42.667-42.667-42.667s-42.667 19.102-42.667 42.667v85.333c0 23.564 19.102 42.667 42.667 42.667zM362.667 554.667c0 47.128 38.205 85.333 85.333 85.333 47.13 0 85.333-38.205 85.333-85.333 0-47.13-38.204-85.333-85.333-85.333s-85.333 38.204-85.333 85.333zM896 533.333c23.565 0 42.667-19.102 42.667-42.667v-85.333c0-23.565-19.102-42.667-42.667-42.667s-42.667 19.102-42.667 42.667v85.333c0 23.565 19.102 42.667 42.667 42.667zM448 341.333c-48.853 0-80.381-27.964-86.593-52.958-5.684-22.869-28.83-36.8-51.699-31.117s-36.799 28.83-31.115 51.699c17.991 72.38 91.882 117.709 169.407 117.709s151.415-45.329 169.408-117.709c5.683-22.869-8.247-46.016-31.117-51.699s-46.012 8.247-51.699 31.117c-6.212 24.994-37.739 52.958-86.592 52.958zM896 277.333c23.565 0 42.667-19.102 42.667-42.667v-85.333c0-23.565-19.102-42.667-42.667-42.667s-42.667 19.102-42.667 42.667v85.333c0 23.565 19.102 42.667 42.667 42.667z" />
<glyph unicode="&#xe901;" glyph-name="tb-address-card" d="M262.889 789.333h498.22c22.494 0.001 41.899 0.001 57.877-1.304 16.87-1.378 33.647-4.421 49.792-12.647 24.085-12.272 43.665-31.854 55.936-55.938 8.226-16.144 11.268-32.922 12.646-49.789 1.306-15.982 1.306-35.385 1.306-57.876v-327.559c0-22.49 0-41.894-1.306-57.873-1.378-16.87-4.42-33.647-12.646-49.792-12.271-24.085-31.851-43.665-55.936-55.936-16.145-8.226-32.922-11.268-49.792-12.646-15.979-1.306-35.383-1.306-57.877-1.306h-498.22c-22.492 0-41.896 0-57.878 1.306-16.868 1.378-33.645 4.42-49.789 12.646-24.085 12.271-43.666 31.851-55.938 55.936-8.226 16.145-11.269 32.922-12.647 49.792-1.306 15.979-1.305 35.383-1.304 57.877v327.554c-0.001 22.492-0.001 41.895 1.304 57.877 1.378 16.868 4.421 33.645 12.647 49.789 12.272 24.085 31.853 43.666 55.938 55.938 16.144 8.226 32.922 11.269 49.789 12.647 15.982 1.306 35.385 1.305 57.877 1.304zM211.961 702.979c-11.591-0.947-15.888-2.554-17.998-3.63-8.028-4.090-14.555-10.618-18.646-18.646-1.075-2.11-2.683-6.407-3.63-17.998-0.988-12.089-1.021-27.973-1.021-52.572v-324.267c0-24.602 0.033-40.482 1.021-52.574 0.947-11.588 2.554-15.885 3.63-17.997 4.090-8.030 10.618-14.554 18.646-18.645 2.11-1.075 6.407-2.684 17.998-3.631 12.089-0.986 27.973-1.020 52.572-1.020h494.933c24.602 0 40.482 0.034 52.574 1.020 11.588 0.947 15.885 2.556 17.997 3.631 8.030 4.092 14.554 10.615 18.645 18.645 1.075 2.112 2.684 6.409 3.631 17.997 0.986 12.092 1.020 27.972 1.020 52.574v324.267c0 24.599-0.034 40.483-1.020 52.572-0.947 11.591-2.556 15.888-3.631 17.998-4.092 8.028-10.615 14.555-18.645 18.646-2.112 1.075-6.409 2.683-17.997 3.63-12.092 0.988-27.972 1.021-52.574 1.021h-494.933c-24.599 0-40.483-0.033-52.572-1.021zM298.667 554.667c0 47.128 38.205 85.333 85.333 85.333 47.13 0 85.333-38.205 85.333-85.333 0-47.13-38.204-85.333-85.333-85.333s-85.333 38.204-85.333 85.333zM554.667 576c0 23.564 19.102 42.667 42.667 42.667h170.667c23.565 0 42.667-19.103 42.667-42.667s-19.102-42.667-42.667-42.667h-170.667c-23.565 0-42.667 19.102-42.667 42.667zM554.667 448c0 23.565 19.102 42.667 42.667 42.667h170.667c23.565 0 42.667-19.102 42.667-42.667s-19.102-42.667-42.667-42.667h-170.667c-23.565 0-42.667 19.102-42.667 42.667zM384 341.333c-48.853 0-80.381-27.964-86.593-52.958-5.684-22.869-28.83-36.8-51.699-31.117s-36.799 28.83-31.115 51.699c17.991 72.38 91.882 117.709 169.407 117.709s151.415-45.329 169.408-117.709c5.683-22.869-8.247-46.016-31.117-51.699s-46.012 8.247-51.699 31.117c-6.212 24.994-37.739 52.958-86.592 52.958z" />
<glyph unicode="&#xe902;" glyph-name="tb-alarm-clock-alt" d="M183.163 840.837c16.663 16.662 43.677 16.662 60.34 0s16.662-43.677 0-60.34l-85.333-85.333c-16.663-16.662-43.677-16.662-60.34 0s-16.662 43.677 0 60.34l85.333 85.333zM780.497 840.837c16.661 16.662 43.678 16.662 60.339 0l85.333-85.333c16.661-16.663 16.661-43.677 0-60.34s-43.678-16.662-60.339 0l-85.333 85.333c-16.661 16.663-16.661 43.677 0 60.34zM512 725.333c-164.949 0-298.667-133.718-298.667-298.667s133.718-298.667 298.667-298.667c164.949 0 298.667 133.717 298.667 298.667s-133.717 298.667-298.667 298.667zM128 426.667c0 212.077 171.923 384 384 384 212.079 0 384-171.923 384-384 0-212.079-171.921-384-384-384-212.077 0-384 171.921-384 384zM512 640c23.565 0 42.667-19.103 42.667-42.667v-152.994l72.836-72.836c16.661-16.661 16.661-43.678 0-60.339s-43.678-16.661-60.339 0l-85.333 85.333c-8 8-12.497 18.854-12.497 30.17v170.667c0 23.564 19.102 42.667 42.667 42.667z" />
<glyph unicode="&#xe903;" glyph-name="tb-alarm-clock" d="M720.158 776.837c-16.661 16.662-16.661 43.677 0 60.34 49.988 49.987 131.034 49.987 181.022 0s49.988-131.032 0-181.019c-16.661-16.662-43.678-16.662-60.339 0-16.666 16.663-16.666 43.677 0 60.34 16.661 16.663 16.661 43.677 0 60.34-16.666 16.662-43.678 16.662-60.339 0-16.666-16.663-43.678-16.663-60.343 0zM183.172 776.837c-16.662-16.663-16.662-43.677 0-60.34s16.663-43.677 0-60.34c-16.662-16.662-43.677-16.662-60.34 0-49.987 49.987-49.987 131.032 0 181.019s131.032 49.987 181.019 0c16.662-16.662 16.662-43.677 0-60.34s-43.677-16.663-60.34 0c-16.663 16.662-43.677 16.662-60.34 0zM512 704c-153.167 0-277.333-124.166-277.333-277.333 0-153.169 124.166-277.333 277.333-277.333 153.169 0 277.333 124.164 277.333 277.333 0 153.167-124.164 277.333-277.333 277.333zM149.333 426.667c0 200.295 162.371 362.667 362.667 362.667s362.667-162.371 362.667-362.667c0-200.294-162.372-362.667-362.667-362.667s-362.667 162.372-362.667 362.667zM328.837 179.503c16.662-16.661 16.662-43.678 0-60.339l-85.333-85.333c-16.663-16.661-43.677-16.661-60.34 0s-16.662 43.678 0 60.339l85.333 85.333c16.663 16.661 43.677 16.661 60.34 0zM512 618.667c23.565 0 42.667-19.103 42.667-42.667v-152.994l72.836-72.836c16.661-16.661 16.661-43.678 0-60.339s-43.678-16.661-60.339 0l-85.333 85.333c-8 8-12.497 18.854-12.497 30.17v170.667c0 23.564 19.102 42.667 42.667 42.667zM695.164 179.503c16.661 16.661 43.678 16.661 60.339 0l85.333-85.333c16.661-16.661 16.661-43.678 0-60.339s-43.678-16.661-60.339 0l-85.333 85.333c-16.661 16.661-16.661 43.678 0 60.339z" />
<glyph unicode="&#xe904;" glyph-name="tb-alarm-exclamation" d="M706.146 819.683c-16.666-16.663-16.666-43.677 0-60.34 16.661-16.662 43.674-16.662 60.339 0 8 8.002 18.854 12.497 30.17 12.497s22.165-4.495 30.17-12.497c8-8.001 12.497-18.854 12.497-30.17s-4.497-22.168-12.497-30.17c-16.661-16.662-16.661-43.677 0-60.34s43.678-16.663 60.339 0c24.004 24.004 37.491 56.562 37.491 90.51s-13.487 66.505-37.491 90.51c-24.004 24.005-56.563 37.49-90.509 37.49-33.95 0-66.505-13.486-90.509-37.49zM136.823 819.613c-24.004-24.005-37.49-56.562-37.49-90.51s13.486-66.505 37.49-90.51c16.663-16.663 43.677-16.663 60.34 0s16.662 43.677 0 60.34c-8.002 8.002-12.497 18.854-12.497 30.17s4.495 22.168 12.497 30.17c8.001 8.002 18.854 12.497 30.17 12.497s22.169-4.495 30.17-12.497c16.663-16.662 43.677-16.662 60.34 0s16.662 43.677 0 60.34c-24.005 24.004-56.562 37.49-90.51 37.49s-66.505-13.486-90.51-37.49zM511.987 679.186c141.385 0 256-114.615 256-256.001 0-80.102-36.791-151.612-94.396-198.554-0.213-0.171-0.427-0.341-0.636-0.516-43.977-35.601-99.981-56.93-160.969-56.93s-116.994 21.329-160.968 56.93c-0.211 0.175-0.423 0.346-0.636 0.516-57.606 46.942-94.396 118.451-94.396 198.554 0 141.386 114.615 256.001 256 256.001zM761.626 190.396c56.883 60.979 91.695 142.818 91.695 232.789 0 188.514-152.819 341.334-341.333 341.334s-341.333-152.82-341.333-341.334c0-89.971 34.81-171.81 91.696-232.789l-79.041-78.217c-16.75-16.572-16.891-43.588-0.317-60.339 16.575-16.747 43.59-16.892 60.339-0.316l84.867 83.981c53.053-33.963 116.119-53.653 183.788-53.653s130.735 19.691 183.787 53.653l84.868-83.981c16.751-16.576 43.763-16.431 60.339 0.316 16.576 16.751 16.435 43.767-0.316 60.339l-79.040 78.217zM511.987 593.853c-23.565 0-42.667-19.102-42.667-42.667v-128.001c0-23.565 19.102-42.667 42.667-42.667s42.667 19.102 42.667 42.667v128.001c0 23.564-19.102 42.667-42.667 42.667zM469.321 295.185c0-23.565 19.102-42.667 42.667-42.667h0.427c23.565 0 42.667 19.102 42.667 42.667s-19.102 42.667-42.667 42.667h-0.427c-23.565 0-42.667-19.102-42.667-42.667z" />
<glyph unicode="&#xe905;" glyph-name="tb-annotation-user" d="M305.556 832c-22.492 0.001-41.895 0.001-57.877-1.304-16.868-1.378-33.645-4.421-49.789-12.647-24.085-12.272-43.666-31.853-55.938-55.938-8.226-16.144-11.269-32.922-12.647-49.789-1.306-15.982-1.305-35.385-1.304-57.877v-284.887c-0.001-22.494-0.001-41.899 1.304-57.877 1.378-16.87 4.421-33.647 12.647-49.792 12.272-24.085 31.853-43.665 55.938-55.936 16.144-8.226 32.922-11.268 49.789-12.646 14.066-1.152 30.783-1.289 49.923-1.306 0.699-0.017 1.396-0.017 2.091 0 1.931 0 3.886 0 5.865 0h50.167c5.589 0 8.379-0.009 10.405-0.102 0.053-0.004 0.104-0.004 0.153-0.009 0.036-0.034 0.074-0.068 0.113-0.102 1.498-1.365 3.478-3.332 7.43-7.283l108.006-108.006c8-8 18.854-12.497 30.17-12.497s22.17 4.497 30.17 12.497l108.006 108.006c3.951 3.951 5.931 5.918 7.428 7.283 0.038 0.034 0.077 0.068 0.115 0.102 0.047 0.004 0.098 0.004 0.154 0.009 2.027 0.094 4.813 0.102 10.402 0.102h50.167c1.98 0 3.934 0 5.867 0 0.695-0.017 1.391-0.017 2.091 0 19.14 0.017 35.857 0.154 49.92 1.306 16.87 1.378 33.647 4.42 49.792 12.646 24.085 12.271 43.665 31.851 55.936 55.936 8.226 16.145 11.268 32.922 12.646 49.792 1.306 15.979 1.306 35.383 1.306 57.873v284.892c0 22.491 0 41.894-1.306 57.876-1.378 16.868-4.42 33.645-12.646 49.789-12.271 24.085-31.851 43.666-55.936 55.938-16.145 8.226-32.922 11.269-49.792 12.647-15.979 1.306-35.383 1.305-57.877 1.304h-412.887zM339.021 220.809c-0.015-0.038-0.020-0.055-0.016-0.043l0.041 0.119 0.042 0.119 0.026 0.081 0.015 0.043c-0.035-0.107-0.071-0.213-0.108-0.32zM379.781 276.215c25.489 22.148 66.58 43.785 132.219 43.785s106.731-21.636 132.22-43.785c-2.15-0.316-4.314-0.721-6.468-1.242-8.708-2.091-17.028-5.538-24.666-10.214-8.802-5.397-16-12.629-21.713-18.377-0.525-0.525-1.037-1.041-1.536-1.54l-77.837-77.837-77.837 77.837c-0.499 0.499-1.011 1.015-1.536 1.54-5.713 5.747-12.909 12.979-21.713 18.377-7.635 4.676-15.959 8.124-24.666 10.214-2.156 0.521-4.318 0.926-6.467 1.242zM752.077 277.555c-8.239 14.455-20.847 32.887-39.241 51.281-39.462 39.462-103.445 76.497-200.836 76.497-97.389 0-161.373-37.035-200.837-76.497-18.393-18.394-31.001-36.826-39.242-51.281-6.646 0.145-12.294 0.393-17.294 0.798-11.591 0.947-15.888 2.556-17.998 3.631-8.028 4.092-14.555 10.615-18.646 18.645-1.075 2.112-2.683 6.409-3.63 17.997-0.988 12.092-1.021 27.972-1.021 52.574v281.6c0 24.599 0.033 40.483 1.021 52.572 0.947 11.591 2.554 15.888 3.63 17.998 4.090 8.028 10.618 14.555 18.646 18.646 2.11 1.075 6.407 2.683 17.998 3.63 12.089 0.988 27.973 1.021 52.572 1.021h409.6c24.602 0 40.482-0.033 52.574-1.021 11.588-0.947 15.885-2.554 17.997-3.63 8.030-4.090 14.554-10.618 18.645-18.646 1.075-2.11 2.684-6.407 3.631-17.998 0.986-12.089 1.020-27.973 1.020-52.572v-281.6c0-24.602-0.034-40.482-1.020-52.574-0.947-11.588-2.556-15.885-3.631-17.997-4.092-8.030-10.615-14.554-18.645-18.645-2.112-1.075-6.409-2.684-17.997-3.631-5.001-0.405-10.65-0.653-17.297-0.798zM512 618.667c-23.565 0-42.667-19.103-42.667-42.667s19.102-42.667 42.667-42.667c23.565 0 42.667 19.102 42.667 42.667s-19.102 42.667-42.667 42.667zM384 576c0 70.692 57.306 128 128 128s128-57.308 128-128c0-70.694-57.306-128-128-128s-128 57.306-128 128z" />
<glyph unicode="&#xe906;" glyph-name="tb-annotation" d="M305.556 832h412.887c22.494 0.001 41.899 0.001 57.877-1.304 16.87-1.378 33.647-4.421 49.792-12.647 24.085-12.272 43.665-31.853 55.936-55.938 8.226-16.144 11.268-32.922 12.646-49.789 1.306-15.982 1.306-35.385 1.306-57.876v-284.892c0-22.49 0-41.894-1.306-57.873-1.378-16.87-4.42-33.647-12.646-49.792-12.271-24.085-31.851-43.665-55.936-55.936-16.145-8.226-32.922-11.268-49.792-12.646-15.979-1.306-35.383-1.306-57.877-1.306h-50.167c-5.589 0-8.375-0.009-10.402-0.102-0.055-0.004-0.107-0.004-0.154-0.009-0.038-0.034-0.077-0.068-0.115-0.102-1.498-1.365-3.477-3.332-7.428-7.283l-108.006-108.006c-16.661-16.661-43.678-16.661-60.339 0l-108.006 108.006c-3.952 3.951-5.932 5.918-7.43 7.283-0.039 0.034-0.077 0.068-0.113 0.102-0.049 0.004-0.1 0.004-0.153 0.009-2.026 0.094-4.816 0.102-10.405 0.102h-50.167c-22.492 0-41.896 0-57.878 1.306-16.868 1.378-33.645 4.42-49.789 12.646-24.085 12.271-43.666 31.851-55.938 55.936-8.226 16.145-11.269 32.922-12.647 49.792-1.306 15.979-1.305 35.383-1.304 57.877v284.887c-0.001 22.492-0.001 41.895 1.304 57.877 1.378 16.868 4.421 33.645 12.647 49.789 12.272 24.085 31.853 43.666 55.938 55.938 16.144 8.226 32.922 11.269 49.789 12.647 15.982 1.306 35.385 1.305 57.877 1.304zM254.628 745.646c-11.591-0.947-15.888-2.554-17.998-3.63-8.028-4.090-14.555-10.618-18.646-18.646-1.075-2.11-2.683-6.407-3.63-17.998-0.988-12.089-1.021-27.973-1.021-52.572v-281.6c0-24.602 0.033-40.482 1.021-52.574 0.947-11.588 2.554-15.885 3.63-17.997 4.090-8.030 10.618-14.554 18.646-18.645 2.11-1.075 6.407-2.684 17.998-3.631 12.089-0.986 27.973-1.020 52.572-1.020h48.523c0.707 0 1.434 0 2.178 0.004 8.103 0.021 18.306 0.047 28.347-2.364 8.707-2.091 17.031-5.538 24.666-10.214 8.804-5.397 16-12.629 21.713-18.377 0.525-0.525 1.037-1.041 1.536-1.54l77.837-77.837 77.837 77.837c0.499 0.499 1.011 1.015 1.536 1.54 5.713 5.747 12.911 12.979 21.713 18.377 7.637 4.676 15.962 8.124 24.666 10.214 10.044 2.411 20.245 2.385 28.348 2.364 0.742-0.004 1.472-0.004 2.176-0.004h48.525c24.602 0 40.482 0.034 52.574 1.020 11.588 0.947 15.885 2.556 17.997 3.631 8.030 4.092 14.554 10.615 18.645 18.645 1.075 2.112 2.684 6.409 3.631 17.997 0.986 12.092 1.020 27.972 1.020 52.574v281.6c0 24.599-0.034 40.483-1.020 52.572-0.947 11.591-2.556 15.888-3.631 17.998-4.092 8.028-10.615 14.555-18.645 18.646-2.112 1.075-6.409 2.683-17.997 3.63-12.092 0.988-27.972 1.021-52.574 1.021h-409.6c-24.599 0-40.483-0.033-52.572-1.021z" />
<glyph unicode="&#xe907;" glyph-name="tb-aperture" d="M214.518 615.494l107.604-186.374c0.828-1.685 1.769-3.315 2.819-4.885l35.546-61.568h-179.067c-7.020 27.273-10.754 55.868-10.754 85.333 0 60.868 15.931 118.012 43.852 167.494zM270.492 689.21c60.945 61.020 144.87 99.084 237.685 100.102l-147.739-255.893-89.946 155.791zM600.098 777.856c88.457-23.564 162.782-81.764 207.569-159.189h-221.675c-0.521 0.009-1.037 0.009-1.557 0h-76.245l91.908 159.189zM842.581 533.333c7.019-27.273 10.752-55.868 10.752-85.333 0-62.426-16.759-120.939-46.020-171.281l-148.16 256.614h183.428zM836.809 171.324c63.518 74.492 101.858 171.106 101.858 276.676 0 235.642-191.027 426.667-426.667 426.667-235.642 0-426.667-191.025-426.667-426.667 0-47.407 7.731-93.005 22.001-135.607 0.823-4.57 2.374-8.892 4.529-12.83 51.373-138.432 172.525-242.957 320.73-270.852 0.469-0.098 0.939-0.183 1.412-0.265 25.289-4.672 51.354-7.113 77.995-7.113 129.020 0 244.668 57.267 322.906 147.767 0.661 0.721 1.297 1.463 1.903 2.223zM750.733 204.045c-61.547-60.241-145.805-97.378-238.733-97.378-0.247 0-0.499 0-0.747 0l147.853 256.085 91.627-158.707zM419.965 119.219c-86.723 24.226-159.512 81.839-203.634 158.114h217.337c0.503-0.009 1.011-0.009 1.519 0h76.066l-91.288-158.114zM459.021 362.667l-49.316 85.419 49.218 85.248h101.696l49.22-85.248-49.318-85.419h-101.5z" />
<glyph unicode="&#xe908;" glyph-name="tb-arrow-circle-down-left" d="M512 789.333c-188.513 0-341.333-152.82-341.333-341.333s152.82-341.333 341.333-341.333c188.514 0 341.333 152.819 341.333 341.333s-152.819 341.333-341.333 341.333zM85.333 448c0 235.642 191.025 426.667 426.667 426.667 235.639 0 426.667-191.025 426.667-426.667 0-235.639-191.027-426.667-426.667-426.667-235.642 0-426.667 191.027-426.667 426.667zM670.178 606.173c16.661-16.662 16.661-43.677 0-60.34l-183.164-183.166h88.994c23.565 0 42.667-19.102 42.667-42.667s-19.102-42.667-42.667-42.667h-192.001c-23.564 0-42.667 19.102-42.667 42.667v192c0 23.564 19.103 42.667 42.667 42.667s42.668-19.103 42.668-42.667v-88.994l183.164 183.166c16.661 16.663 43.678 16.663 60.339 0z" />
<glyph unicode="&#xe909;" glyph-name="tb-arrow-circle-down-right" d="M512 789.333c-188.513 0-341.333-152.82-341.333-341.333s152.82-341.333 341.333-341.333c188.514 0 341.333 152.819 341.333 341.333s-152.819 341.333-341.333 341.333zM85.333 448c0 235.642 191.025 426.667 426.667 426.667 235.639 0 426.667-191.025 426.667-426.667 0-235.639-191.027-426.667-426.667-426.667-235.642 0-426.667 191.027-426.667 426.667zM353.839 606.173c16.663 16.662 43.678 16.661 60.34-0.001l183.155-183.162v88.99c0 23.564 19.102 42.667 42.667 42.667s42.667-19.103 42.667-42.667v-192c0-23.565-19.102-42.667-42.667-42.667h-192c-23.564 0-42.667 19.102-42.667 42.667s19.103 42.667 42.667 42.667h88.998l-183.161 183.167c-16.662 16.663-16.662 43.677 0.001 60.34z" />
<glyph unicode="&#xe90a;" glyph-name="tb-arrow-circle-down" d="M512 789.333c-188.513 0-341.333-152.82-341.333-341.333s152.82-341.333 341.333-341.333c188.514 0 341.333 152.819 341.333 341.333s-152.819 341.333-341.333 341.333zM85.333 448c0 235.642 191.025 426.667 426.667 426.667 235.639 0 426.667-191.025 426.667-426.667 0-235.639-191.027-426.667-426.667-426.667-235.642 0-426.667 191.027-426.667 426.667zM512 661.333c23.565 0 42.667-19.103 42.667-42.667v-238.327l55.164 55.164c16.661 16.661 43.678 16.661 60.339 0s16.661-43.678 0-60.339l-128-128c-16.661-16.661-43.678-16.661-60.339 0l-128 128c-16.662 16.661-16.662 43.678 0 60.339s43.677 16.661 60.34 0l55.163-55.164v238.327c0 23.564 19.102 42.667 42.667 42.667z" />
<glyph unicode="&#xe90b;" glyph-name="tb-arrow-circle-left" d="M512 789.333c-188.513 0-341.333-152.82-341.333-341.333s152.82-341.333 341.333-341.333c188.514 0 341.333 152.819 341.333 341.333s-152.819 341.333-341.333 341.333zM85.333 448c0 235.642 191.025 426.667 426.667 426.667 235.639 0 426.667-191.025 426.667-426.667 0-235.639-191.027-426.667-426.667-426.667-235.642 0-426.667 191.027-426.667 426.667zM499.503 606.17c16.661-16.663 16.661-43.677 0-60.34l-55.164-55.163h238.327c23.565 0 42.667-19.102 42.667-42.667s-19.102-42.667-42.667-42.667h-238.327l55.164-55.164c16.661-16.661 16.661-43.678 0-60.339s-43.678-16.661-60.339 0l-128 128c-16.662 16.661-16.662 43.678 0 60.339l128 128c16.661 16.662 43.678 16.662 60.339 0z" />
<glyph unicode="&#xe90c;" glyph-name="tb-arrow-circle-right" d="M512 789.333c-188.513 0-341.333-152.82-341.333-341.333s152.82-341.333 341.333-341.333c188.514 0 341.333 152.819 341.333 341.333s-152.819 341.333-341.333 341.333zM85.333 448c0 235.642 191.025 426.667 426.667 426.667 235.639 0 426.667-191.025 426.667-426.667 0-235.639-191.027-426.667-426.667-426.667-235.642 0-426.667 191.027-426.667 426.667zM524.497 606.17c16.661 16.662 43.678 16.662 60.339 0l128-128c16.661-16.661 16.661-43.678 0-60.339l-128-128c-16.661-16.661-43.678-16.661-60.339 0s-16.661 43.678 0 60.339l55.164 55.164h-238.327c-23.564 0-42.667 19.102-42.667 42.667s19.103 42.667 42.667 42.667h238.327l-55.164 55.163c-16.661 16.663-16.661 43.677 0 60.34z" />
<glyph unicode="&#xe90d;" glyph-name="tb-arrow-circle-up-left" d="M512 789.333c-188.513 0-341.333-152.82-341.333-341.333s152.82-341.333 341.333-341.333c188.514 0 341.333 152.819 341.333 341.333s-152.819 341.333-341.333 341.333zM85.333 448c0 235.642 191.025 426.667 426.667 426.667 235.639 0 426.667-191.025 426.667-426.667 0-235.639-191.027-426.667-426.667-426.667-235.642 0-426.667 191.027-426.667 426.667zM341.341 575.998c0 23.564 19.102 42.667 42.667 42.667h192c23.565 0 42.667-19.103 42.667-42.667s-19.102-42.669-42.667-42.669h-88.994l183.164-183.155c16.661-16.661 16.661-43.678 0-60.339-16.661-16.666-43.678-16.666-60.339-0.004l-183.164 183.164v-88.998c0-23.561-19.103-42.667-42.667-42.667s-42.667 19.106-42.667 42.667v192.002z" />
<glyph unicode="&#xe90e;" glyph-name="tb-arrow-circle-up-right" d="M512 789.333c-188.513 0-341.333-152.82-341.333-341.333s152.82-341.333 341.333-341.333c188.514 0 341.333 152.819 341.333 341.333s-152.819 341.333-341.333 341.333zM85.333 448c0 235.642 191.025 426.667 426.667 426.667 235.639 0 426.667-191.025 426.667-426.667 0-235.639-191.027-426.667-426.667-426.667-235.642 0-426.667 191.027-426.667 426.667zM405.333 576c0 23.564 19.103 42.667 42.667 42.667h192c23.565 0 42.667-19.103 42.667-42.667v-192c0-23.565-19.102-42.667-42.667-42.667s-42.667 19.102-42.667 42.667v88.994l-183.155-183.159c-16.662-16.666-43.677-16.666-60.34-0.004-16.663 16.666-16.663 43.678-0.001 60.343l183.156 183.159h-88.994c-23.564 0-42.667 19.103-42.667 42.667z" />
<glyph unicode="&#xe90f;" glyph-name="tb-arrow-circle-up" d="M512 789.333c-188.513 0-341.333-152.82-341.333-341.333s152.82-341.333 341.333-341.333c188.514 0 341.333 152.819 341.333 341.333s-152.819 341.333-341.333 341.333zM85.333 448c0 235.642 191.025 426.667 426.667 426.667 235.639 0 426.667-191.025 426.667-426.667 0-235.639-191.027-426.667-426.667-426.667-235.642 0-426.667 191.027-426.667 426.667zM353.83 520.836l128 128c16.661 16.662 43.678 16.662 60.339 0l128-128c16.661-16.661 16.661-43.678 0-60.339s-43.678-16.661-60.339 0l-55.164 55.164v-238.327c0-23.565-19.102-42.667-42.667-42.667s-42.667 19.102-42.667 42.667v238.327l-55.163-55.164c-16.663-16.661-43.677-16.661-60.34 0s-16.662 43.678 0 60.339z" />
<glyph unicode="&#xe910;" glyph-name="tb-arrow-down-1-9" d="M805.662 871.419c-15.945 6.604-34.295 2.953-46.498-9.249l-85.333-85.333c-16.661-16.663-16.661-43.677 0-60.34s43.678-16.662 60.339 0l12.497 12.497v-152.994h-42.667c-23.565 0-42.667-19.103-42.667-42.667s19.102-42.667 42.667-42.667h170.667c23.565 0 42.667 19.102 42.667 42.667s-19.102 42.667-42.667 42.667h-42.667v256c0 17.257-10.394 32.815-26.338 39.419zM298.667 874.667c23.564 0 42.667-19.103 42.667-42.667v-664.994l97.83 97.83c16.661 16.661 43.678 16.661 60.339 0s16.661-43.678 0-60.339l-170.666-170.667c-16.663-16.661-43.677-16.661-60.34 0l-170.667 170.667c-16.662 16.661-16.662 43.678 0 60.339s43.677 16.661 60.34 0l97.83-97.83v664.994c0 23.564 19.103 42.667 42.667 42.667zM789.333 320c-35.345 0-64-28.655-64-64s28.655-64 64-64c18.236 0 34.692 7.629 46.349 19.866l5.461 6.554c7.667 10.551 12.19 23.539 12.19 37.581 0 35.345-28.655 64-64 64zM899.793 155.503c24.149 26.53 38.874 61.794 38.874 100.497 0 82.475-66.859 149.333-149.333 149.333s-149.333-66.859-149.333-149.333c0-69.564 47.565-128.021 111.949-144.614l-16.725-20.070c-15.087-18.103-12.642-45.009 5.461-60.092 18.103-15.087 45.009-12.642 60.092 5.461l99.017 118.818z" />
<glyph unicode="&#xe911;" glyph-name="tb-arrow-down-9-1" d="M298.667 874.667c-23.564 0-42.667-19.103-42.667-42.667v-664.994l-97.83 97.83c-16.663 16.661-43.677 16.661-60.34 0s-16.662-43.678 0-60.339l170.667-170.667c16.663-16.661 43.677-16.661 60.34 0l170.666 170.667c16.661 16.661 16.661 43.678 0 60.339s-43.678 16.661-60.339 0l-97.83-97.83v664.994c0 23.564-19.103 42.667-42.667 42.667zM789.333 789.333c-35.345 0-64-28.654-64-64s28.655-64 64-64c18.236 0 34.692 7.628 46.349 19.866l5.461 6.554c7.667 10.553 12.19 23.538 12.19 37.58 0 35.346-28.655 64-64 64zM899.793 624.838c24.149 26.53 38.874 61.793 38.874 100.496 0 82.475-66.859 149.333-149.333 149.333s-149.333-66.859-149.333-149.333c0-69.565 47.565-128.020 111.949-144.615l-16.725-20.070c-15.087-18.102-12.642-45.008 5.461-60.091 18.103-15.087 45.009-12.642 60.092 5.461l99.017 118.819zM805.662 402.086c15.945-6.605 26.338-22.161 26.338-39.42v-256h42.667c23.565 0 42.667-19.102 42.667-42.667s-19.102-42.667-42.667-42.667h-170.667c-23.565 0-42.667 19.102-42.667 42.667s19.102 42.667 42.667 42.667h42.667v152.994l-12.497-12.497c-16.661-16.661-43.678-16.661-60.339 0s-16.661 43.678 0 60.339l85.333 85.333c12.203 12.203 30.554 15.855 46.498 9.25z" />
<glyph unicode="&#xe912;" glyph-name="tb-arrow-down-a-z" d="M298.667 874.667c23.564 0 42.667-19.103 42.667-42.667v-664.994l97.83 97.83c16.661 16.661 43.678 16.661 60.339 0s16.661-43.678 0-60.339l-170.666-170.667c-16.663-16.661-43.677-16.661-60.34 0l-170.667 170.667c-16.662 16.661-16.662 43.678 0 60.339s43.677 16.661 60.34 0l97.83-97.83v664.994c0 23.564 19.103 42.667 42.667 42.667zM768 874.667c17.067 0 32.495-10.172 39.215-25.859l128-298.667c9.284-21.658-0.751-46.742-22.409-56.022-21.658-9.284-46.741 0.751-56.021 22.409l-7.206 16.806h-163.157l-7.206-16.806c-9.28-21.658-34.364-31.693-56.021-22.409-21.658 9.28-31.693 34.364-22.409 56.022l128 298.667c6.72 15.688 22.148 25.859 39.215 25.859zM722.991 618.667h90.018l-45.009 105.020-45.009-105.020zM618.667 362.667c0 23.565 19.102 42.667 42.667 42.667h213.333c15.983 0 30.626-8.93 37.939-23.142s6.071-31.317-3.221-44.322l-165.141-231.202h130.423c23.565 0 42.667-19.102 42.667-42.667s-19.102-42.667-42.667-42.667h-213.333c-15.983 0-30.626 8.93-37.939 23.142s-6.071 31.317 3.221 44.322l165.141 231.202h-130.423c-23.565 0-42.667 19.102-42.667 42.667z" />
<glyph unicode="&#xe913;" glyph-name="tb-arrow-down-arrow-up" d="M298.667 832c23.564 0 42.667-19.103 42.667-42.667v-579.661l97.83 97.83c16.661 16.661 43.678 16.661 60.339 0s16.661-43.678 0-60.339l-170.666-170.667c-16.663-16.661-43.677-16.661-60.34 0l-170.667 170.667c-16.662 16.661-16.662 43.678 0 60.339s43.677 16.661 60.34 0l97.83-97.83v579.661c0 23.564 19.103 42.667 42.667 42.667zM695.164 819.503c16.661 16.662 43.678 16.662 60.339 0l170.667-170.667c16.661-16.663 16.661-43.677 0-60.34s-43.678-16.662-60.339 0l-97.83 97.83v-579.66c0-23.565-19.102-42.667-42.667-42.667s-42.667 19.102-42.667 42.667v579.66l-97.83-97.83c-16.661-16.662-43.678-16.662-60.339 0s-16.661 43.677 0 60.34l170.667 170.667z" />
<glyph unicode="&#xe914;" glyph-name="tb-arrow-down-big-small" d="M664.239 832h164.855c10.769 0.001 21.257 0.003 30.135-0.723 9.754-0.797 21.265-2.677 32.845-8.578 16.055-8.181 29.111-21.236 37.291-37.292 5.901-11.581 7.782-23.089 8.58-32.843 0.725-8.881 0.721-19.368 0.721-30.136v-164.857c0-10.768 0.004-21.255-0.721-30.135-0.798-9.754-2.679-21.265-8.58-32.845-8.179-16.055-21.235-29.111-37.291-37.291-11.58-5.901-23.091-7.782-32.845-8.58-8.879-0.725-19.366-0.721-30.135-0.721h-164.855c-10.769 0-21.257-0.004-30.135 0.721-9.754 0.798-21.265 2.679-32.845 8.58-16.055 8.179-29.111 21.235-37.291 37.291-5.901 11.58-7.782 23.091-8.58 32.845-0.725 8.88-0.721 19.367-0.721 30.136v164.854c0 10.768-0.004 21.256 0.721 30.137 0.798 9.754 2.679 21.262 8.58 32.843 8.179 16.056 21.235 29.111 37.291 37.292 11.58 5.901 23.091 7.781 32.845 8.578 8.879 0.726 19.366 0.724 30.135 0.723zM640.486 746.178c-0.013-0.177-0.030-0.365-0.047-0.563-0.405-4.974-0.439-11.897-0.439-24.549v-162.133c0-12.652 0.034-19.575 0.439-24.549 0.017-0.198 0.034-0.386 0.047-0.563 0.179-0.016 0.367-0.032 0.563-0.049 4.975-0.407 11.9-0.439 24.55-0.439h162.133c12.651 0 19.575 0.033 24.55 0.439 0.196 0.016 0.384 0.033 0.563 0.049 0.013 0.177 0.030 0.364 0.047 0.562 0.405 4.974 0.439 11.897 0.439 24.549v162.133c0 12.652-0.034 19.575-0.439 24.549-0.017 0.198-0.034 0.386-0.051 0.563-0.175 0.016-0.363 0.032-0.559 0.049-4.975 0.407-11.9 0.439-24.55 0.439h-162.133c-12.651 0-19.575-0.033-24.55-0.439-0.196-0.016-0.384-0.032-0.563-0.049zM298.667 832c23.564 0 42.667-19.102 42.667-42.667v-579.66l97.83 97.83c16.661 16.661 43.678 16.661 60.339 0s16.661-43.678 0-60.339l-170.666-170.667c-16.663-16.661-43.677-16.661-60.34 0l-170.667 170.667c-16.662 16.661-16.662 43.678 0 60.339s43.677 16.661 60.34 0l97.83-97.83v579.66c0 23.564 19.103 42.667 42.667 42.667zM664.239 362.667h79.522c10.769 0 21.257 0.004 30.135-0.721 9.754-0.798 21.265-2.679 32.845-8.58 16.055-8.179 29.111-21.235 37.291-37.291 5.901-11.58 7.782-23.091 8.58-32.845 0.725-8.879 0.721-19.366 0.721-30.135v-79.522c0-10.769 0.004-21.257-0.721-30.135-0.798-9.754-2.679-21.265-8.58-32.845-8.179-16.055-21.235-29.111-37.291-37.291-11.58-5.901-23.091-7.782-32.845-8.58-8.879-0.725-19.366-0.721-30.135-0.721h-79.522c-10.769 0-21.257-0.004-30.135 0.721-9.754 0.798-21.265 2.679-32.845 8.58-16.055 8.179-29.111 21.235-37.291 37.291-5.901 11.58-7.782 23.091-8.58 32.845-0.725 8.879-0.721 19.366-0.721 30.135v79.522c0 10.769-0.004 21.257 0.721 30.135 0.798 9.754 2.679 21.265 8.58 32.845 8.179 16.055 21.235 29.111 37.291 37.291 11.58 5.901 23.091 7.782 32.845 8.58 8.879 0.725 19.366 0.721 30.135 0.721zM640.486 276.843c-0.013-0.175-0.030-0.363-0.047-0.559-0.405-4.975-0.439-11.9-0.439-24.55v-76.8c0-12.651 0.034-19.575 0.439-24.55 0.017-0.196 0.034-0.384 0.047-0.563 0.179-0.013 0.367-0.030 0.563-0.047 4.975-0.405 11.9-0.439 24.55-0.439h76.8c12.651 0 19.575 0.034 24.55 0.439 0.196 0.017 0.384 0.034 0.563 0.047 0.013 0.179 0.030 0.367 0.047 0.563 0.405 4.975 0.439 11.9 0.439 24.55v76.8c0 12.651-0.034 19.575-0.439 24.55-0.017 0.196-0.034 0.384-0.047 0.559-0.179 0.017-0.367 0.034-0.563 0.051-4.975 0.405-11.9 0.439-24.55 0.439h-76.8c-12.651 0-19.575-0.034-24.55-0.439-0.196-0.017-0.384-0.034-0.563-0.051z" />
<glyph unicode="&#xe915;" glyph-name="tb-arrow-down-left" d="M298.667 704c23.564 0 42.667-19.103 42.667-42.667v-323.661l353.83 353.831c16.661 16.662 43.678 16.662 60.339 0s16.661-43.677 0-60.34l-353.83-353.83h323.66c23.565 0 42.667-19.102 42.667-42.667s-19.102-42.667-42.667-42.667h-426.667c-23.564 0-42.667 19.102-42.667 42.667v426.667c0 23.564 19.103 42.667 42.667 42.667z" />
<glyph unicode="&#xe916;" glyph-name="tb-arrow-down-right" d="M268.497 691.503c16.663 16.662 43.677 16.662 60.34 0l353.83-353.831v323.661c0 23.564 19.102 42.667 42.667 42.667s42.667-19.103 42.667-42.667v-426.667c0-23.565-19.102-42.667-42.667-42.667h-426.667c-23.564 0-42.667 19.102-42.667 42.667s19.103 42.667 42.667 42.667h323.661l-353.831 353.83c-16.662 16.663-16.662 43.677 0 60.34z" />
<glyph unicode="&#xe917;" glyph-name="tb-arrow-down-short-wide" d="M298.672 874.667c23.564 0 42.667-19.103 42.667-42.667v-664.994l97.83 97.83c16.661 16.661 43.678 16.661 60.339 0 16.666-16.661 16.666-43.678 0-60.339l-170.665-170.667c-16.663-16.661-43.677-16.661-60.34 0l-170.667 170.667c-16.663 16.661-16.663 43.678 0 60.339s43.677 16.661 60.34 0l97.83-97.83v664.994c0 23.564 19.103 42.667 42.667 42.667zM554.671 832c0 23.564 19.102 42.667 42.667 42.667h42.667c23.565 0 42.667-19.103 42.667-42.667s-19.102-42.667-42.667-42.667h-42.667c-23.565 0-42.667 19.103-42.667 42.667zM554.671 576c0 23.564 19.102 42.667 42.667 42.667h128c23.565 0 42.667-19.103 42.667-42.667s-19.102-42.667-42.667-42.667h-128c-23.565 0-42.667 19.103-42.667 42.667zM554.671 320c0 23.565 19.102 42.667 42.667 42.667h213.333c23.565 0 42.667-19.102 42.667-42.667s-19.102-42.667-42.667-42.667h-213.333c-23.565 0-42.667 19.102-42.667 42.667zM896.004 21.333h-298.667c-23.565 0-42.667 19.102-42.667 42.667s19.102 42.667 42.667 42.667h298.667c23.565 0 42.667-19.102 42.667-42.667s-19.102-42.667-42.667-42.667z" />
<glyph unicode="&#xe918;" glyph-name="tb-arrow-down-small-big" d="M664.239 832h79.522c10.769 0.001 21.257 0.003 30.135-0.723 9.754-0.797 21.265-2.677 32.845-8.578 16.055-8.181 29.111-21.236 37.291-37.292 5.901-11.581 7.782-23.089 8.58-32.843 0.725-8.881 0.721-19.368 0.721-30.136v-79.523c0-10.768 0.004-21.255-0.721-30.136-0.798-9.753-2.679-21.262-8.58-32.843-8.179-16.056-21.235-29.111-37.291-37.292-11.58-5.901-23.091-7.781-32.845-8.578-8.879-0.727-19.366-0.723-30.135-0.723h-79.522c-10.769 0-21.257-0.004-30.135 0.723-9.754 0.797-21.265 2.677-32.845 8.578-16.055 8.181-29.111 21.236-37.291 37.292-5.901 11.581-7.782 23.089-8.58 32.843-0.725 8.882-0.721 19.369-0.721 30.138v79.521c0 10.768-0.004 21.256 0.721 30.137 0.798 9.754 2.679 21.262 8.58 32.843 8.179 16.056 21.235 29.111 37.291 37.292 11.58 5.901 23.091 7.781 32.845 8.578 8.879 0.726 19.366 0.724 30.135 0.723zM640.486 746.178c-0.013-0.177-0.030-0.365-0.047-0.563-0.405-4.974-0.439-11.897-0.439-24.549v-76.8c0-12.652 0.034-19.575 0.439-24.549 0.017-0.198 0.034-0.386 0.047-0.563 0.179-0.016 0.367-0.032 0.563-0.049 4.975-0.407 11.9-0.44 24.55-0.44h76.8c12.651 0 19.575 0.033 24.55 0.44 0.196 0.016 0.384 0.032 0.563 0.049 0.013 0.177 0.030 0.365 0.047 0.563 0.405 4.974 0.439 11.897 0.439 24.549v76.8c0 12.652-0.034 19.575-0.439 24.549-0.017 0.198-0.034 0.386-0.047 0.563-0.179 0.016-0.367 0.032-0.563 0.049-4.975 0.407-11.9 0.439-24.55 0.439h-76.8c-12.651 0-19.575-0.033-24.55-0.439-0.196-0.016-0.384-0.032-0.563-0.049zM298.667 832c23.564 0 42.667-19.102 42.667-42.667v-579.66l97.83 97.83c16.661 16.661 43.678 16.661 60.339 0s16.661-43.678 0-60.339l-170.666-170.667c-16.663-16.661-43.677-16.661-60.34 0l-170.667 170.667c-16.662 16.661-16.662 43.678 0 60.339s43.677 16.661 60.34 0l97.83-97.83v579.66c0 23.564 19.103 42.667 42.667 42.667zM664.239 448h164.855c10.769 0 21.257 0.004 30.135-0.721 9.754-0.798 21.265-2.679 32.845-8.58 16.055-8.179 29.111-21.235 37.291-37.291 5.901-11.58 7.782-23.091 8.58-32.845 0.725-8.879 0.721-19.366 0.721-30.135v-164.855c0-10.769 0.004-21.257-0.721-30.135-0.798-9.754-2.679-21.265-8.58-32.845-8.179-16.055-21.235-29.111-37.291-37.291-11.58-5.901-23.091-7.782-32.845-8.58-8.879-0.725-19.366-0.721-30.135-0.721h-164.855c-10.769 0-21.257-0.004-30.135 0.721-9.754 0.798-21.265 2.679-32.845 8.58-16.055 8.179-29.111 21.235-37.291 37.291-5.901 11.58-7.782 23.091-8.58 32.845-0.725 8.879-0.721 19.366-0.721 30.135v164.855c0 10.769-0.004 21.257 0.721 30.135 0.798 9.754 2.679 21.265 8.58 32.845 8.179 16.055 21.235 29.111 37.291 37.291 11.58 5.901 23.091 7.782 32.845 8.58 8.879 0.725 19.366 0.721 30.135 0.721zM640.486 362.176c-0.013-0.175-0.030-0.363-0.047-0.559-0.405-4.975-0.439-11.9-0.439-24.55v-162.133c0-12.651 0.034-19.575 0.439-24.55 0.017-0.196 0.034-0.384 0.047-0.563 0.179-0.013 0.367-0.030 0.563-0.047 4.975-0.405 11.9-0.439 24.55-0.439h162.133c12.651 0 19.575 0.034 24.55 0.439 0.196 0.017 0.384 0.034 0.563 0.051 0.013 0.175 0.030 0.363 0.047 0.559 0.405 4.975 0.439 11.9 0.439 24.55v162.133c0 12.651-0.034 19.575-0.439 24.55-0.017 0.196-0.034 0.384-0.051 0.559-0.175 0.017-0.363 0.034-0.559 0.051-4.975 0.405-11.9 0.439-24.55 0.439h-162.133c-12.651 0-19.575-0.034-24.55-0.439-0.196-0.017-0.384-0.034-0.563-0.051z" />
<glyph unicode="&#xe919;" glyph-name="tb-arrow-down-to-arc" d="M512 874.667c23.565 0 42.667-19.103 42.667-42.667v-408.994l97.83 97.83c16.661 16.663 43.678 16.663 60.339 0 16.661-16.661 16.661-43.678 0-60.339l-170.667-170.667c-16.661-16.661-43.678-16.661-60.339 0l-170.667 170.667c-16.662 16.661-16.662 43.678 0 60.339 16.663 16.663 43.677 16.663 60.34 0l97.83-97.83v408.994c0 23.564 19.102 42.667 42.667 42.667zM128 533.333c23.564 0 42.667-19.102 42.667-42.667v-42.667c0-188.514 152.82-341.333 341.333-341.333s341.333 152.819 341.333 341.333v42.667c0 23.565 19.102 42.667 42.667 42.667s42.667-19.102 42.667-42.667v-42.667c0-235.639-191.027-426.667-426.667-426.667-235.642 0-426.667 191.027-426.667 426.667v42.667c0 23.565 19.103 42.667 42.667 42.667z" />
<glyph unicode="&#xe91a;" glyph-name="tb-arrow-down-to-bracket" d="M512 874.667c23.565 0 42.667-19.103 42.667-42.667v-408.994l97.83 97.83c16.661 16.663 43.678 16.663 60.339 0 16.661-16.661 16.661-43.678 0-60.339l-170.667-170.667c-16.661-16.661-43.678-16.661-60.339 0l-170.667 170.667c-16.663 16.661-16.663 43.678 0 60.339 16.662 16.663 43.677 16.663 60.34 0l97.83-97.83v408.994c0 23.564 19.102 42.667 42.667 42.667zM128 533.333c23.564 0 42.667-19.102 42.667-42.667v-290.099c0-24.602 0.033-40.482 1.021-52.574 0.947-11.588 2.554-15.889 3.63-17.997 4.090-8.030 10.618-14.558 18.646-18.645 2.11-1.075 6.407-2.684 17.998-3.631 12.089-0.986 27.973-1.020 52.572-1.020h494.933c24.602 0 40.482 0.034 52.574 1.020 11.588 0.947 15.885 2.556 17.997 3.631 8.030 4.087 14.554 10.615 18.645 18.645 1.075 2.108 2.684 6.409 3.631 17.997 0.986 12.092 1.020 27.972 1.020 52.574v290.099c0 23.565 19.102 42.667 42.667 42.667s42.667-19.102 42.667-42.667v-291.746c0-22.49 0-41.894-1.306-57.873-1.378-16.87-4.42-33.647-12.646-49.792-12.271-24.085-31.851-43.665-55.936-55.936-16.145-8.226-32.922-11.268-49.792-12.646-15.979-1.31-35.383-1.306-57.873-1.306h-498.225c-22.491 0-41.894-0.004-57.876 1.306-16.868 1.378-33.645 4.42-49.789 12.646-24.085 12.271-43.666 31.851-55.938 55.936-8.226 16.145-11.269 32.922-12.647 49.792-1.306 15.979-1.305 35.383-1.304 57.873v291.746c0 23.565 19.103 42.667 42.667 42.667z" />
<glyph unicode="&#xe91b;" glyph-name="tb-arrow-down-to-square" d="M512 832c23.565 0 42.667-19.103 42.667-42.667v-408.994l55.164 55.164c16.661 16.661 43.678 16.661 60.339 0s16.661-43.678 0-60.339l-128-128c-16.661-16.661-43.678-16.661-60.339 0l-128 128c-16.663 16.661-16.663 43.678 0 60.339s43.677 16.661 60.34 0l55.163-55.164v408.994c0 23.564 19.102 42.667 42.667 42.667zM262.889 618.667h35.778c23.564 0 42.667-19.103 42.667-42.667s-19.102-42.667-42.667-42.667h-34.133c-24.599 0-40.483-0.034-52.572-1.020-11.591-0.947-15.888-2.556-17.998-3.631-8.028-4.092-14.555-10.615-18.646-18.645-1.075-2.112-2.683-6.409-3.63-17.997-0.988-12.092-1.021-27.972-1.021-52.574v-196.267c0-24.602 0.033-40.482 1.021-52.574 0.947-11.588 2.554-15.885 3.63-17.997 4.090-8.030 10.618-14.554 18.646-18.645 2.11-1.075 6.407-2.684 17.998-3.631 12.089-0.986 27.973-1.020 52.572-1.020h494.933c24.602 0 40.482 0.034 52.574 1.020 11.588 0.947 15.885 2.556 17.997 3.631 8.030 4.092 14.554 10.615 18.645 18.645 1.075 2.112 2.684 6.409 3.631 17.997 0.986 12.092 1.020 27.972 1.020 52.574v196.267c0 24.602-0.034 40.482-1.020 52.574-0.947 11.588-2.556 15.885-3.631 17.997-4.092 8.030-10.615 14.554-18.645 18.645-2.112 1.075-6.409 2.684-17.997 3.631-12.092 0.986-27.972 1.020-52.574 1.020h-34.133c-23.565 0-42.667 19.103-42.667 42.667s19.102 42.667 42.667 42.667h35.776c22.494 0.001 41.899 0.001 57.877-1.304 16.87-1.378 33.647-4.421 49.792-12.647 24.085-12.272 43.665-31.853 55.936-55.938 8.226-16.144 11.268-32.92 12.646-49.791 1.306-15.979 1.306-35.383 1.306-57.873v-199.561c0-22.49 0-41.894-1.306-57.873-1.378-16.87-4.42-33.647-12.646-49.792-12.271-24.085-31.851-43.665-55.936-55.936-16.145-8.226-32.922-11.268-49.792-12.646-15.979-1.306-35.383-1.306-57.873-1.306h-498.225c-22.491 0-41.894 0-57.876 1.306-16.868 1.378-33.645 4.42-49.789 12.646-24.085 12.271-43.666 31.851-55.938 55.936-8.226 16.145-11.269 32.922-12.647 49.792-1.306 15.979-1.305 35.383-1.304 57.877v199.552c-0.001 22.494-0.001 41.899 1.304 57.877 1.378 16.87 4.421 33.647 12.647 49.791 12.272 24.085 31.853 43.666 55.938 55.938 16.144 8.226 32.922 11.269 49.789 12.647 15.982 1.306 35.385 1.305 57.877 1.304z" />
<glyph unicode="&#xe91c;" glyph-name="tb-arrow-down-wide-short" d="M298.667 874.667c23.564 0 42.667-19.103 42.667-42.667v-664.994l97.83 97.83c16.661 16.661 43.678 16.661 60.339 0s16.661-43.678 0-60.339l-170.666-170.667c-16.663-16.661-43.677-16.661-60.34 0l-170.667 170.667c-16.662 16.661-16.662 43.678 0 60.339s43.677 16.661 60.34 0l97.83-97.83v664.994c0 23.564 19.103 42.667 42.667 42.667zM554.667 832c0 23.564 19.102 42.667 42.667 42.667h298.667c23.565 0 42.667-19.103 42.667-42.667s-19.102-42.667-42.667-42.667h-298.667c-23.565 0-42.667 19.103-42.667 42.667zM554.667 576c0 23.564 19.102 42.667 42.667 42.667h213.333c23.565 0 42.667-19.103 42.667-42.667s-19.102-42.667-42.667-42.667h-213.333c-23.565 0-42.667 19.103-42.667 42.667zM554.667 320c0 23.565 19.102 42.667 42.667 42.667h128c23.565 0 42.667-19.102 42.667-42.667s-19.102-42.667-42.667-42.667h-128c-23.565 0-42.667 19.102-42.667 42.667zM640 21.333h-42.667c-23.565 0-42.667 19.102-42.667 42.667s19.102 42.667 42.667 42.667h42.667c23.565 0 42.667-19.102 42.667-42.667s-19.102-42.667-42.667-42.667z" />
<glyph unicode="&#xe91d;" glyph-name="tb-arrow-down-z-a" d="M298.667 874.667c23.564 0 42.667-19.103 42.667-42.667v-664.994l97.83 97.83c16.661 16.661 43.678 16.661 60.339 0s16.661-43.678 0-60.339l-170.666-170.667c-16.663-16.661-43.677-16.661-60.34 0l-170.667 170.667c-16.662 16.661-16.662 43.678 0 60.339s43.677 16.661 60.34 0l97.83-97.83v664.994c0 23.564 19.103 42.667 42.667 42.667zM618.667 832c0 23.564 19.102 42.667 42.667 42.667h213.333c15.983 0 30.626-8.932 37.939-23.143s6.071-31.317-3.221-44.323l-165.141-231.2h130.423c23.565 0 42.667-19.103 42.667-42.667s-19.102-42.667-42.667-42.667h-213.333c-15.983 0-30.626 8.93-37.939 23.142s-6.071 31.318 3.221 44.324l165.141 231.2h-130.423c-23.565 0-42.667 19.103-42.667 42.667zM768 405.333c17.067 0 32.495-10.172 39.215-25.86l128-298.667c9.284-21.658-0.751-46.741-22.409-56.021-21.658-9.284-46.741 0.751-56.021 22.409l-7.206 16.806h-163.157l-7.206-16.806c-9.28-21.658-34.364-31.693-56.021-22.409-21.658 9.28-31.693 34.364-22.409 56.021l128 298.667c6.72 15.689 22.148 25.86 39.215 25.86zM722.991 149.333h90.018l-45.009 105.020-45.009-105.020z" />
<glyph unicode="&#xe91e;" glyph-name="tb-arrow-down" d="M512 789.333c23.565 0 42.667-19.103 42.667-42.667v-494.327l183.164 183.164c16.661 16.661 43.678 16.661 60.339 0s16.661-43.678 0-60.339l-256-256c-16.661-16.661-43.678-16.661-60.339 0l-256 256c-16.662 16.661-16.662 43.678 0 60.339s43.677 16.661 60.34 0l183.163-183.164v494.327c0 23.564 19.102 42.667 42.667 42.667z" />
<glyph unicode="&#xe91f;" glyph-name="tb-arrow-left" d="M499.503 734.17c16.661-16.663 16.661-43.677 0-60.34l-183.163-183.163h494.327c23.565 0 42.667-19.102 42.667-42.667s-19.102-42.667-42.667-42.667h-494.327l183.163-183.164c16.661-16.661 16.661-43.678 0-60.339s-43.678-16.661-60.339 0l-256 256c-16.662 16.661-16.662 43.678 0 60.339l256 256c16.661 16.662 43.678 16.662 60.339 0z" />
<glyph unicode="&#xe920;" glyph-name="tb-arrow-narrow-bottom-alignment" d="M512 832c23.565 0 42.667-19.103 42.667-42.667v-408.994l97.83 97.83c16.661 16.661 43.678 16.661 60.339 0s16.661-43.678 0-60.339l-170.667-170.667c-16.661-16.661-43.678-16.661-60.339 0l-170.667 170.667c-16.662 16.661-16.662 43.678 0 60.339s43.677 16.661 60.34 0l97.83-97.83v408.994c0 23.564 19.102 42.667 42.667 42.667zM128 106.667c0 23.565 19.103 42.667 42.667 42.667h682.667c23.565 0 42.667-19.102 42.667-42.667s-19.102-42.667-42.667-42.667h-682.667c-23.564 0-42.667 19.102-42.667 42.667z" />
<glyph unicode="&#xe921;" glyph-name="tb-arrow-narrow-circle-broken-down-left" d="M578.667 782.799c-108.109 21.411-224.372-9.788-308.026-93.441-133.299-133.299-133.299-349.42 0-482.719s349.421-133.299 482.72 0c83.652 83.652 114.85 199.919 93.44 308.028-4.578 23.114 10.449 45.563 33.566 50.141 23.113 4.578 45.564-10.449 50.142-33.565 26.705-134.848-12.177-280.311-116.809-384.943-166.626-166.622-436.775-166.622-603.399 0s-166.624 436.774 0 603.398c104.632 104.631 250.094 143.516 384.942 116.809 23.117-4.578 38.144-27.028 33.566-50.143s-27.025-38.142-50.142-33.565zM813.7 749.698c16.661-16.662 16.661-43.677 0-60.34l-284.028-284.025h131.661c23.565 0 42.667-19.102 42.667-42.667s-19.102-42.667-42.667-42.667h-234.667c-23.564 0-42.667 19.102-42.667 42.667v241.358c0 23.564 19.103 42.667 42.667 42.667s42.667-19.103 42.667-42.667v-138.352l284.028 284.025c16.661 16.662 43.674 16.662 60.339 0z" />
<glyph unicode="&#xe922;" glyph-name="tb-arrow-narrow-circle-broken-down-right" d="M753.361 689.358c-83.652 83.654-199.919 114.852-308.028 93.441-23.114-4.578-45.563 10.449-50.141 33.565s10.449 45.565 33.565 50.143c134.848 26.707 280.311-12.178 384.943-116.809 166.622-166.624 166.622-436.776 0-603.398s-436.774-166.622-603.398 0c-104.631 104.631-143.516 250.095-116.809 384.943 4.578 23.116 27.028 38.144 50.143 33.565s38.142-27.028 33.565-50.141c-21.411-108.109 9.788-224.375 93.441-308.028 133.299-133.299 349.42-133.299 482.719 0s133.299 349.42 0 482.719zM210.302 749.698c16.662 16.662 43.677 16.662 60.34 0l284.025-284.025v138.352c0 23.564 19.102 42.667 42.667 42.667s42.667-19.103 42.667-42.667v-241.358c0-23.565-19.102-42.667-42.667-42.667h-241.358c-23.564 0-42.667 19.102-42.667 42.667s19.103 42.667 42.667 42.667h138.352l-284.025 284.025c-16.662 16.662-16.662 43.677 0 60.34z" />
<glyph unicode="&#xe923;" glyph-name="tb-arrow-narrow-circle-broken-down" d="M512 789.333c-118.304 0-222.576-60.15-283.88-151.734-13.108-19.582-39.608-24.83-59.19-11.723s-24.83 39.608-11.723 59.19c76.468 114.238 206.822 189.6 354.793 189.6 235.639 0 426.667-191.025 426.667-426.667 0-235.639-191.027-426.667-426.667-426.667-147.971 0-278.324 75.362-354.793 189.598-13.108 19.584-7.859 46.084 11.723 59.191s46.082 7.859 59.19-11.721c61.304-91.584 165.576-151.735 283.88-151.735 188.514 0 341.333 152.819 341.333 341.333s-152.819 341.333-341.333 341.333zM439.164 648.837c16.661 16.662 43.678 16.662 60.339 0l170.667-170.667c16.661-16.661 16.661-43.678 0-60.339l-170.667-170.667c-16.661-16.661-43.678-16.661-60.339 0-16.663 16.661-16.663 43.678 0 60.339l97.83 97.83h-408.994c-23.564 0-42.667 19.102-42.667 42.667s19.103 42.667 42.667 42.667h408.994l-97.83 97.83c-16.663 16.663-16.663 43.677 0 60.34z" />
<glyph unicode="&#xe924;" glyph-name="tb-arrow-narrow-circle-broken-left" d="M512 789.333c-188.513 0-341.333-152.82-341.333-341.333s152.82-341.333 341.333-341.333c118.302 0 222.575 60.151 283.878 151.735 13.111 19.58 39.612 24.828 59.191 11.721 19.584-13.107 24.832-39.607 11.725-59.191-76.471-114.236-206.822-189.598-354.795-189.598-235.642 0-426.667 191.027-426.667 426.667 0 235.642 191.025 426.667 426.667 426.667 147.972 0 278.323-75.362 354.795-189.6 13.107-19.582 7.859-46.083-11.725-59.19-19.58-13.108-46.080-7.859-59.191 11.723-61.303 91.584-165.577 151.734-283.878 151.734zM584.836 648.837c16.661-16.663 16.661-43.677 0-60.34l-97.83-97.83h408.994c23.565 0 42.667-19.102 42.667-42.667s-19.102-42.667-42.667-42.667h-408.994l97.83-97.83c16.661-16.661 16.661-43.678 0-60.339s-43.678-16.661-60.339 0l-170.667 170.667c-16.662 16.661-16.662 43.678 0 60.339l170.667 170.667c16.661 16.662 43.678 16.662 60.339 0z" />
<glyph unicode="&#xe925;" glyph-name="tb-arrow-narrow-circle-broken-right" d="M512 874.667c23.565 0 42.667-19.103 42.667-42.667v-408.994l97.83 97.83c16.661 16.663 43.678 16.663 60.339 0 16.661-16.661 16.661-43.678 0-60.339l-170.667-170.667c-16.661-16.661-43.678-16.661-60.339 0l-170.667 170.667c-16.662 16.661-16.662 43.678 0 60.339 16.663 16.663 43.677 16.663 60.34 0l97.83-97.83v408.994c0 23.564 19.102 42.667 42.667 42.667zM334.123 791.070c13.108-19.582 7.859-46.082-11.723-59.19-91.584-61.304-151.734-165.576-151.734-283.88 0-188.514 152.82-341.333 341.333-341.333s341.333 152.819 341.333 341.333c0 118.304-60.151 222.576-151.735 283.88-19.58 13.108-24.828 39.608-11.721 59.19s39.607 24.83 59.191 11.723c114.236-76.468 189.598-206.822 189.598-354.793 0-235.639-191.027-426.667-426.667-426.667-235.642 0-426.667 191.027-426.667 426.667 0 147.971 75.362 278.324 189.6 354.793 19.582 13.108 46.083 7.859 59.19-11.723z" />
<glyph unicode="&#xe926;" glyph-name="tb-arrow-narrow-circle-broken-up-left" d="M753.361 689.359c-133.299 133.299-349.421 133.299-482.72 0s-133.299-349.421 0-482.72c83.654-83.652 199.917-114.85 308.026-93.44 23.117 4.578 45.564-10.449 50.142-33.566 4.578-23.113-10.449-45.564-33.566-50.142-134.848-26.705-280.31 12.177-384.942 116.809-166.624 166.626-166.624 436.775 0 603.399s436.773 166.624 603.399 0c104.631-104.632 143.514-250.094 116.809-384.942-4.578-23.117-27.029-38.144-50.142-33.566-23.117 4.578-38.144 27.025-33.566 50.142 21.41 108.109-9.788 224.372-93.44 308.026zM426.667 576h241.361c23.561 0 42.667-19.103 42.667-42.667s-19.106-42.667-42.667-42.667h-138.355l284.028-284.028c16.661-16.661 16.661-43.674 0-60.339-16.666-16.661-43.678-16.661-60.339 0l-284.028 284.028v-138.355c0-23.561-19.102-42.667-42.667-42.667s-42.667 19.106-42.667 42.667v241.361c0 23.564 19.103 42.667 42.667 42.667z" />
<glyph unicode="&#xe927;" glyph-name="tb-arrow-narrow-circle-broken-up-right" d="M753.361 689.359c-133.299 133.299-349.42 133.299-482.719 0-83.654-83.654-114.852-199.917-93.441-308.026 4.578-23.117-10.449-45.564-33.565-50.142s-45.565 10.449-50.143 33.566c-26.707 134.848 12.177 280.31 116.809 384.942 166.624 166.624 436.776 166.624 603.398 0s166.622-436.773 0-603.399c-104.631-104.631-250.095-143.514-384.943-116.809-23.116 4.578-38.144 27.029-33.565 50.142 4.578 23.117 27.028 38.144 50.141 33.566 108.109-21.41 224.375 9.788 308.028 93.44 133.299 133.299 133.299 349.421 0 482.72zM313.309 533.333c0 23.564 19.103 42.667 42.667 42.667h241.358c23.565 0 42.667-19.103 42.667-42.667v-241.361c0-23.561-19.102-42.667-42.667-42.667s-42.667 19.106-42.667 42.667v138.355l-284.025-284.028c-16.662-16.661-43.677-16.661-60.34 0-16.662 16.666-16.662 43.678 0 60.339l284.025 284.028h-138.352c-23.564 0-42.667 19.102-42.667 42.667z" />
<glyph unicode="&#xe928;" glyph-name="tb-arrow-narrow-down-move" d="M128 789.333c0 23.564 19.103 42.667 42.667 42.667h682.667c23.565 0 42.667-19.103 42.667-42.667s-19.102-42.667-42.667-42.667h-682.667c-23.564 0-42.667 19.103-42.667 42.667zM512 661.333c23.565 0 42.667-19.103 42.667-42.667v-408.994l97.83 97.83c16.661 16.661 43.678 16.661 60.339 0s16.661-43.678 0-60.339l-170.667-170.667c-16.661-16.661-43.678-16.661-60.339 0l-170.667 170.667c-16.662 16.661-16.662 43.678 0 60.339s43.677 16.661 60.34 0l97.83-97.83v408.994c0 23.564 19.102 42.667 42.667 42.667z" />
<glyph unicode="&#xe929;" glyph-name="tb-arrow-narrow-down" d="M512 832c23.565 0 42.667-19.103 42.667-42.667v-579.661l97.83 97.83c16.661 16.661 43.678 16.661 60.339 0s16.661-43.678 0-60.339l-170.667-170.667c-8-8-18.854-12.497-30.17-12.497s-22.17 4.497-30.17 12.497l-170.667 170.667c-16.662 16.661-16.662 43.678 0 60.339s43.677 16.661 60.34 0l97.83-97.83v579.661c0 23.564 19.102 42.667 42.667 42.667z" />
<glyph unicode="&#xe92a;" glyph-name="tb-arrow-narrow-left-alignment" d="M170.667 832c23.564 0 42.667-19.103 42.667-42.667v-682.667c0-23.565-19.103-42.667-42.667-42.667s-42.667 19.102-42.667 42.667v682.667c0 23.564 19.103 42.667 42.667 42.667zM542.17 648.837c16.661-16.663 16.661-43.677 0-60.34l-97.83-97.83h408.994c23.565 0 42.667-19.102 42.667-42.667s-19.102-42.667-42.667-42.667h-408.994l97.83-97.83c16.661-16.661 16.661-43.678 0-60.339s-43.678-16.661-60.339 0l-170.667 170.667c-16.662 16.661-16.662 43.678 0 60.339l170.667 170.667c16.661 16.662 43.678 16.662 60.339 0z" />
<glyph unicode="&#xe92b;" glyph-name="tb-arrow-narrow-left-move" d="M853.333 832c23.565 0 42.667-19.103 42.667-42.667v-682.667c0-23.565-19.102-42.667-42.667-42.667s-42.667 19.102-42.667 42.667v682.667c0 23.564 19.102 42.667 42.667 42.667zM371.503 648.837c16.662-16.663 16.662-43.677 0-60.34l-97.83-97.83h408.994c23.565 0 42.667-19.102 42.667-42.667s-19.102-42.667-42.667-42.667h-408.994l97.83-97.83c16.662-16.661 16.662-43.678 0-60.339s-43.677-16.661-60.34 0l-170.667 170.667c-16.662 16.661-16.662 43.678 0 60.339l170.667 170.667c16.663 16.662 43.677 16.662 60.34 0z" />
<glyph unicode="&#xe92c;" glyph-name="tb-arrow-narrow-left" d="M371.503 648.837c16.662-16.663 16.662-43.677 0-60.34l-97.83-97.83h579.66c23.565 0 42.667-19.102 42.667-42.667s-19.102-42.667-42.667-42.667h-579.66l97.83-97.83c16.662-16.661 16.662-43.678 0-60.339s-43.677-16.661-60.34 0l-170.667 170.667c-16.662 16.661-16.662 43.678 0 60.339l170.667 170.667c16.663 16.662 43.677 16.662 60.34 0z" />
<glyph unicode="&#xe92d;" glyph-name="tb-arrow-narrow-right-alignment" d="M853.333 832c23.565 0 42.667-19.103 42.667-42.667v-682.667c0-23.565-19.102-42.667-42.667-42.667s-42.667 19.102-42.667 42.667v682.667c0 23.564 19.102 42.667 42.667 42.667zM481.83 648.837c16.661 16.662 43.678 16.662 60.339 0l170.667-170.667c16.661-16.661 16.661-43.678 0-60.339l-170.667-170.667c-16.661-16.661-43.678-16.661-60.339 0s-16.661 43.678 0 60.339l97.83 97.83h-408.994c-23.564 0-42.667 19.102-42.667 42.667s19.103 42.667 42.667 42.667h408.994l-97.83 97.83c-16.661 16.663-16.661 43.677 0 60.34z" />
<glyph unicode="&#xe92e;" glyph-name="tb-arrow-narrow-right-move" d="M170.667 832c23.564 0 42.667-19.103 42.667-42.667v-682.667c0-23.565-19.103-42.667-42.667-42.667s-42.667 19.102-42.667 42.667v682.667c0 23.564 19.103 42.667 42.667 42.667zM652.497 648.837c16.661 16.662 43.678 16.662 60.339 0l170.667-170.667c16.661-16.661 16.661-43.678 0-60.339l-170.667-170.667c-16.661-16.661-43.678-16.661-60.339 0s-16.661 43.678 0 60.339l97.83 97.83h-408.994c-23.564 0-42.667 19.102-42.667 42.667s19.103 42.667 42.667 42.667h408.994l-97.83 97.83c-16.661 16.663-16.661 43.677 0 60.34z" />
<glyph unicode="&#xe92f;" glyph-name="tb-arrow-narrow-right" d="M652.497 648.837c16.661 16.662 43.678 16.662 60.339 0l170.667-170.667c16.661-16.661 16.661-43.678 0-60.339l-170.667-170.667c-16.661-16.661-43.678-16.661-60.339 0s-16.661 43.678 0 60.339l97.83 97.83h-579.661c-23.564 0-42.667 19.102-42.667 42.667s19.103 42.667 42.667 42.667h579.661l-97.83 97.83c-16.661 16.663-16.661 43.677 0 60.34z" />
<glyph unicode="&#xe930;" glyph-name="tb-arrow-narrow-top-alignment" d="M128 789.333c0 23.564 19.103 42.667 42.667 42.667h682.667c23.565 0 42.667-19.103 42.667-42.667s-19.102-42.667-42.667-42.667h-682.667c-23.564 0-42.667 19.103-42.667 42.667zM481.83 648.837c16.661 16.662 43.678 16.662 60.339 0l170.667-170.667c16.661-16.661 16.661-43.678 0-60.339s-43.678-16.661-60.339 0l-97.83 97.83v-408.994c0-23.565-19.102-42.667-42.667-42.667s-42.667 19.102-42.667 42.667v408.994l-97.83-97.83c-16.663-16.661-43.677-16.661-60.34 0s-16.662 43.678 0 60.339l170.667 170.667z" />
<glyph unicode="&#xe931;" glyph-name="tb-arrow-narrow-up-move" d="M481.83 819.503c16.661 16.662 43.678 16.662 60.339 0l170.667-170.667c16.661-16.663 16.661-43.677 0-60.34s-43.678-16.662-60.339 0l-97.83 97.83v-408.994c0-23.565-19.102-42.667-42.667-42.667s-42.667 19.102-42.667 42.667v408.994l-97.83-97.83c-16.663-16.662-43.677-16.662-60.34 0s-16.662 43.677 0 60.34l170.667 170.667zM128 106.667c0 23.565 19.103 42.667 42.667 42.667h682.667c23.565 0 42.667-19.102 42.667-42.667s-19.102-42.667-42.667-42.667h-682.667c-23.564 0-42.667 19.102-42.667 42.667z" />
<glyph unicode="&#xe932;" glyph-name="tb-arrow-narrow-up" d="M512 832c11.315 0 22.17-4.495 30.17-12.497l170.667-170.667c16.661-16.663 16.661-43.677 0-60.34s-43.678-16.662-60.339 0l-97.83 97.83v-579.66c0-23.565-19.102-42.667-42.667-42.667s-42.667 19.102-42.667 42.667v579.66l-97.83-97.83c-16.663-16.662-43.677-16.662-60.34 0s-16.662 43.677 0 60.34l170.667 170.667c8 8.001 18.854 12.497 30.17 12.497z" />
<glyph unicode="&#xe933;" glyph-name="tb-arrow-right-from-arc" d="M512 789.333c-188.513 0-341.333-152.82-341.333-341.333s152.82-341.333 341.333-341.333h42.667c23.565 0 42.667-19.102 42.667-42.667s-19.102-42.667-42.667-42.667h-42.667c-235.642 0-426.667 191.027-426.667 426.667 0 235.642 191.025 426.667 426.667 426.667h42.667c23.565 0 42.667-19.103 42.667-42.667s-19.102-42.667-42.667-42.667h-42.667zM695.164 648.837c16.661 16.662 43.678 16.662 60.339 0l170.667-170.667c16.661-16.661 16.661-43.678 0-60.339l-170.667-170.667c-16.661-16.661-43.678-16.661-60.339 0s-16.661 43.678 0 60.339l97.83 97.83h-408.994c-23.564 0-42.667 19.102-42.667 42.667s19.103 42.667 42.667 42.667h408.994l-97.83 97.83c-16.661 16.663-16.661 43.677 0 60.34z" />
<glyph unicode="&#xe934;" glyph-name="tb-arrow-right-from-bracket" d="M926.17 478.17c16.661-16.661 16.661-43.678 0-60.339l-170.667-170.667c-16.661-16.661-43.678-16.661-60.339 0s-16.661 43.678 0 60.339l97.83 97.83h-408.994c-23.564 0-42.667 19.102-42.667 42.667s19.102 42.667 42.667 42.667h408.994l-97.83 97.83c-16.661 16.663-16.661 43.677 0 60.34s43.678 16.663 60.339 0l170.667-170.667zM597.333 832c0-23.564-19.102-42.667-42.667-42.667h-290.1c-24.599 0-40.483-0.033-52.572-1.021-11.591-0.947-15.888-2.554-17.998-3.63-8.028-4.090-14.555-10.618-18.646-18.646-1.075-2.11-2.682-6.407-3.63-17.998-0.988-12.089-1.021-27.973-1.021-52.572v-494.933c0-24.602 0.033-40.482 1.021-52.574 0.947-11.588 2.554-15.885 3.63-17.997 4.090-8.030 10.618-14.554 18.646-18.645 2.11-1.075 6.407-2.684 17.998-3.631 12.089-0.986 27.973-1.020 52.572-1.020h290.1c23.565 0 42.667-19.102 42.667-42.667s-19.102-42.667-42.667-42.667h-291.746c-22.491 0-41.894 0-57.876 1.306-16.868 1.378-33.645 4.42-49.789 12.646-24.085 12.271-43.666 31.851-55.938 55.936-8.226 16.145-11.269 32.922-12.647 49.792-1.306 15.979-1.305 35.383-1.304 57.873v498.225c-0.001 22.491-0.001 41.894 1.304 57.876 1.378 16.868 4.421 33.645 12.647 49.789 12.272 24.085 31.853 43.666 55.938 55.938 16.144 8.226 32.922 11.269 49.789 12.647 15.982 1.306 35.385 1.305 57.877 1.304h291.744c23.565 0 42.667-19.103 42.667-42.667z" />
<glyph unicode="&#xe935;" glyph-name="tb-arrow-right-to-arc" d="M426.667 832c0 23.564 19.102 42.667 42.667 42.667h42.667c235.639 0 426.667-191.025 426.667-426.667 0-235.639-191.027-426.667-426.667-426.667h-42.667c-23.565 0-42.667 19.102-42.667 42.667s19.102 42.667 42.667 42.667h42.667c188.514 0 341.333 152.819 341.333 341.333s-152.819 341.333-341.333 341.333h-42.667c-23.565 0-42.667 19.103-42.667 42.667zM439.164 588.497c-16.663 16.663-16.663 43.677 0 60.34 16.661 16.662 43.678 16.662 60.339 0l170.667-170.667c16.661-16.661 16.661-43.678 0-60.339l-170.667-170.667c-16.661-16.661-43.678-16.661-60.339 0-16.663 16.661-16.663 43.678 0 60.339l97.83 97.83h-408.994c-23.564 0-42.667 19.102-42.667 42.667s19.103 42.667 42.667 42.667h408.994l-97.83 97.83z" />
<glyph unicode="&#xe936;" glyph-name="tb-arrow-right-to-bracket" d="M812.006 788.312c-12.092 0.988-27.972 1.021-52.574 1.021h-290.099c-23.565 0-42.667 19.102-42.667 42.667s19.102 42.667 42.667 42.667h291.746c22.49 0.001 41.894 0.001 57.873-1.304 16.87-1.378 33.647-4.421 49.792-12.647 24.085-12.272 43.665-31.853 55.936-55.938 8.226-16.144 11.268-32.922 12.646-49.789 1.31-15.982 1.306-35.385 1.306-57.876v-498.225c0-22.49 0.004-41.894-1.306-57.873-1.378-16.87-4.42-33.647-12.646-49.792-12.271-24.085-31.851-43.665-55.936-55.936-16.145-8.226-32.922-11.268-49.792-12.646-15.979-1.306-35.383-1.306-57.873-1.306h-291.746c-23.565 0-42.667 19.102-42.667 42.667s19.102 42.667 42.667 42.667h290.099c24.602 0 40.482 0.034 52.574 1.020 11.588 0.947 15.889 2.556 17.997 3.631 8.030 4.092 14.558 10.615 18.645 18.645 1.075 2.112 2.684 6.409 3.631 17.997 0.986 12.092 1.020 27.972 1.020 52.574v494.933c0 24.599-0.034 40.483-1.020 52.572-0.947 11.591-2.556 15.889-3.631 17.998-4.087 8.028-10.615 14.555-18.645 18.646-2.108 1.075-6.409 2.683-17.997 3.63zM439.164 588.497c-16.663 16.663-16.663 43.677 0 60.34 16.661 16.663 43.678 16.663 60.339 0l170.667-170.667c16.661-16.661 16.661-43.678 0-60.339l-170.667-170.667c-16.661-16.661-43.678-16.661-60.339 0-16.663 16.661-16.663 43.678 0 60.339l97.83 97.83h-408.994c-23.564 0-42.667 19.102-42.667 42.667s19.103 42.667 42.667 42.667h408.994l-97.83 97.83z" />
<glyph unicode="&#xe937;" glyph-name="tb-arrow-right" d="M524.497 734.17c16.661 16.662 43.678 16.662 60.339 0l256-256c8-8 12.497-18.854 12.497-30.17s-4.497-22.17-12.497-30.17l-256-256c-16.661-16.661-43.678-16.661-60.339 0s-16.661 43.678 0 60.339l183.164 183.164h-494.327c-23.564 0-42.667 19.102-42.667 42.667s19.103 42.667 42.667 42.667h494.327l-183.164 183.163c-16.661 16.663-16.661 43.677 0 60.34z" />
<glyph unicode="&#xe938;" glyph-name="tb-arrow-sm-down" d="M512 746.667c23.565 0 42.667-19.103 42.667-42.667v-408.994l140.497 140.497c16.661 16.661 43.678 16.661 60.339 0s16.661-43.678 0-60.339l-213.333-213.333c-16.661-16.661-43.678-16.661-60.339 0l-213.334 213.333c-16.662 16.661-16.662 43.678 0 60.339s43.677 16.661 60.34 0l140.497-140.497v408.994c0 23.564 19.102 42.667 42.667 42.667z" />
<glyph unicode="&#xe939;" glyph-name="tb-arrow-sm-left" d="M499.503 691.503c16.661-16.663 16.661-43.677 0-60.34l-140.497-140.497h408.994c23.565 0 42.667-19.102 42.667-42.667s-19.102-42.667-42.667-42.667h-408.994l140.497-140.497c16.661-16.661 16.661-43.678 0-60.339s-43.678-16.661-60.339 0l-213.334 213.333c-16.662 16.661-16.662 43.678 0 60.339l213.334 213.334c16.661 16.662 43.678 16.662 60.339 0z" />
<glyph unicode="&#xe93a;" glyph-name="tb-arrow-sm-right" d="M524.497 691.503c16.661 16.662 43.678 16.662 60.339 0l213.333-213.334c16.661-16.661 16.661-43.678 0-60.339l-213.333-213.333c-16.661-16.661-43.678-16.661-60.339 0s-16.661 43.678 0 60.339l140.497 140.497h-408.994c-23.564 0-42.667 19.102-42.667 42.667s19.103 42.667 42.667 42.667h408.994l-140.497 140.497c-16.661 16.663-16.661 43.677 0 60.34z" />
<glyph unicode="&#xe93b;" glyph-name="tb-arrow-sm-up" d="M481.83 734.17c16.661 16.662 43.678 16.662 60.339 0l213.333-213.334c16.661-16.661 16.661-43.678 0-60.339s-43.678-16.661-60.339 0l-140.497 140.497v-408.994c0-23.565-19.102-42.667-42.667-42.667s-42.667 19.102-42.667 42.667v408.994l-140.497-140.497c-16.663-16.661-43.677-16.661-60.34 0s-16.662 43.678 0 60.339l213.334 213.334z" />
<glyph unicode="&#xe93c;" glyph-name="tb-arrow-up-1-9" d="M805.662 871.419c-15.945 6.604-34.295 2.954-46.498-9.249l-85.333-85.333c-16.661-16.663-16.661-43.677 0-60.34s43.678-16.662 60.339 0l12.497 12.497v-152.994h-42.667c-23.565 0-42.667-19.102-42.667-42.667s19.102-42.667 42.667-42.667h170.667c23.565 0 42.667 19.102 42.667 42.667s-19.102 42.667-42.667 42.667h-42.667v256c0 17.257-10.394 32.815-26.338 39.419zM268.497 862.17c16.663 16.662 43.677 16.662 60.34 0l170.666-170.667c16.661-16.663 16.661-43.677 0-60.34s-43.678-16.662-60.339 0l-97.83 97.83v-664.994c0-23.565-19.103-42.667-42.667-42.667s-42.667 19.102-42.667 42.667v664.994l-97.83-97.83c-16.663-16.662-43.677-16.662-60.34 0s-16.662 43.677 0 60.34l170.667 170.667zM789.333 320c-35.345 0-64-28.655-64-64s28.655-64 64-64c18.236 0 34.692 7.629 46.349 19.866l5.461 6.554c7.667 10.551 12.19 23.539 12.19 37.581 0 35.345-28.655 64-64 64zM899.793 155.503c24.149 26.53 38.874 61.794 38.874 100.497 0 82.475-66.859 149.333-149.333 149.333s-149.333-66.859-149.333-149.333c0-69.564 47.565-128.021 111.949-144.614l-16.725-20.070c-15.087-18.103-12.642-45.009 5.461-60.092 18.103-15.087 45.009-12.642 60.092 5.461l99.017 118.818z" />
<glyph unicode="&#xe93d;" glyph-name="tb-arrow-up-9-1" d="M298.667 874.667c-11.316 0-22.168-4.495-30.17-12.497l-170.667-170.667c-16.662-16.663-16.662-43.677 0-60.34s43.677-16.662 60.34 0l97.83 97.83v-664.994c0-23.565 19.103-42.667 42.667-42.667s42.667 19.102 42.667 42.667v664.994l97.83-97.83c16.661-16.662 43.678-16.662 60.339 0s16.661 43.677 0 60.34l-170.666 170.667c-8.002 8.001-18.854 12.497-30.17 12.497zM789.333 789.333c-35.345 0-64-28.654-64-64s28.655-64 64-64c18.236 0 34.692 7.628 46.349 19.866l5.461 6.554c7.667 10.553 12.19 23.538 12.19 37.58 0 35.346-28.655 64-64 64zM899.793 624.838c24.149 26.53 38.874 61.793 38.874 100.496 0 82.475-66.859 149.333-149.333 149.333s-149.333-66.859-149.333-149.333c0-69.565 47.565-128.020 111.949-144.615l-16.725-20.070c-15.087-18.102-12.642-45.008 5.461-60.091 18.103-15.087 45.009-12.642 60.092 5.461l99.017 118.819zM805.662 402.086c15.945-6.605 26.338-22.161 26.338-39.42v-256h42.667c23.565 0 42.667-19.102 42.667-42.667s-19.102-42.667-42.667-42.667h-170.667c-23.565 0-42.667 19.102-42.667 42.667s19.102 42.667 42.667 42.667h42.667v152.994l-12.497-12.497c-16.661-16.661-43.678-16.661-60.339 0s-16.661 43.678 0 60.339l85.333 85.333c12.203 12.203 30.554 15.855 46.498 9.25z" />
<glyph unicode="&#xe93e;" glyph-name="tb-arrow-up-a-z" d="M268.497 862.17c16.663 16.662 43.677 16.662 60.34 0l170.666-170.667c16.661-16.663 16.661-43.677 0-60.34s-43.678-16.662-60.339 0l-97.83 97.83v-664.994c0-23.565-19.103-42.667-42.667-42.667s-42.667 19.102-42.667 42.667v664.994l-97.83-97.83c-16.663-16.662-43.677-16.662-60.34 0s-16.662 43.677 0 60.34l170.667 170.667zM791.757 789.333h-130.423c-23.565 0-42.667 19.103-42.667 42.667s19.102 42.667 42.667 42.667h213.333c15.983 0 30.626-8.932 37.939-23.143s6.071-31.317-3.221-44.323l-165.141-231.2h130.423c23.565 0 42.667-19.103 42.667-42.667s-19.102-42.667-42.667-42.667h-213.333c-15.983 0-30.626 8.93-37.939 23.142s-6.071 31.318 3.221 44.324l165.141 231.2zM768 405.333c17.067 0 32.495-10.172 39.215-25.86l128-298.667c9.284-21.658-0.751-46.741-22.409-56.021-21.658-9.284-46.741 0.751-56.021 22.409l-7.206 16.806h-163.157l-7.206-16.806c-9.28-21.658-34.364-31.693-56.021-22.409-21.658 9.28-31.693 34.364-22.409 56.021l128 298.667c6.72 15.689 22.148 25.86 39.215 25.86zM722.991 149.333h90.018l-45.009 105.020-45.009-105.020z" />
<glyph unicode="&#xe93f;" glyph-name="tb-arrow-up-big-small" d="M664.239 832h164.855c10.769 0.001 21.257 0.003 30.135-0.723 9.754-0.797 21.265-2.677 32.845-8.578 16.055-8.181 29.111-21.236 37.291-37.292 5.901-11.581 7.782-23.089 8.58-32.843 0.725-8.881 0.721-19.368 0.721-30.136v-164.857c0-10.768 0.004-21.255-0.721-30.135-0.798-9.754-2.679-21.265-8.58-32.845-8.179-16.055-21.235-29.111-37.291-37.291-11.58-5.901-23.091-7.782-32.845-8.58-8.879-0.725-19.366-0.721-30.135-0.721h-164.855c-10.769 0-21.257-0.004-30.135 0.721-9.754 0.798-21.265 2.679-32.845 8.58-16.055 8.179-29.111 21.235-37.291 37.291-5.901 11.58-7.782 23.091-8.58 32.845-0.725 8.88-0.721 19.367-0.721 30.136v164.854c0 10.768-0.004 21.256 0.721 30.137 0.798 9.754 2.679 21.262 8.58 32.843 8.179 16.056 21.235 29.111 37.291 37.292 11.58 5.901 23.091 7.781 32.845 8.578 8.879 0.726 19.366 0.724 30.135 0.723zM640.486 746.178c-0.013-0.177-0.030-0.365-0.047-0.563-0.405-4.974-0.439-11.897-0.439-24.549v-162.133c0-12.652 0.034-19.575 0.439-24.549 0.017-0.198 0.034-0.386 0.047-0.563 0.179-0.016 0.367-0.032 0.563-0.049 4.975-0.407 11.9-0.439 24.55-0.439h162.133c12.651 0 19.575 0.033 24.55 0.439 0.196 0.016 0.384 0.033 0.563 0.049 0.013 0.177 0.030 0.364 0.047 0.562 0.405 4.974 0.439 11.897 0.439 24.549v162.133c0 12.652-0.034 19.575-0.439 24.549-0.017 0.198-0.034 0.386-0.051 0.563-0.175 0.016-0.363 0.032-0.559 0.049-4.975 0.407-11.9 0.439-24.55 0.439h-162.133c-12.651 0-19.575-0.033-24.55-0.439-0.196-0.016-0.384-0.032-0.563-0.049zM268.497 819.503c16.663 16.663 43.677 16.663 60.34 0l170.666-170.667c16.661-16.662 16.661-43.677 0-60.34s-43.678-16.663-60.339 0l-97.83 97.83v-579.66c0-23.565-19.103-42.667-42.667-42.667s-42.667 19.102-42.667 42.667v579.66l-97.83-97.83c-16.663-16.663-43.677-16.663-60.34 0s-16.662 43.677 0 60.34l170.667 170.667zM664.239 362.667h79.522c10.769 0 21.257 0.004 30.135-0.721 9.754-0.798 21.265-2.679 32.845-8.58 16.055-8.179 29.111-21.235 37.291-37.291 5.901-11.58 7.782-23.091 8.58-32.845 0.725-8.879 0.721-19.366 0.721-30.135v-79.522c0-10.769 0.004-21.257-0.721-30.135-0.798-9.754-2.679-21.265-8.58-32.845-8.179-16.055-21.235-29.111-37.291-37.291-11.58-5.901-23.091-7.782-32.845-8.58-8.879-0.725-19.366-0.721-30.135-0.721h-79.522c-10.769 0-21.257-0.004-30.135 0.721-9.754 0.798-21.265 2.679-32.845 8.58-16.055 8.179-29.111 21.235-37.291 37.291-5.901 11.58-7.782 23.091-8.58 32.845-0.725 8.879-0.721 19.366-0.721 30.135v79.522c0 10.769-0.004 21.257 0.721 30.135 0.798 9.754 2.679 21.265 8.58 32.845 8.179 16.055 21.235 29.111 37.291 37.291 11.58 5.901 23.091 7.782 32.845 8.58 8.879 0.725 19.366 0.721 30.135 0.721zM640.486 276.843c-0.013-0.175-0.030-0.363-0.047-0.559-0.405-4.975-0.439-11.9-0.439-24.55v-76.8c0-12.651 0.034-19.575 0.439-24.55 0.017-0.196 0.034-0.384 0.047-0.563 0.179-0.013 0.367-0.030 0.563-0.047 4.975-0.405 11.9-0.439 24.55-0.439h76.8c12.651 0 19.575 0.034 24.55 0.439 0.196 0.017 0.384 0.034 0.563 0.047 0.013 0.179 0.030 0.367 0.047 0.563 0.405 4.975 0.439 11.9 0.439 24.55v76.8c0 12.651-0.034 19.575-0.439 24.55-0.017 0.196-0.034 0.384-0.047 0.559-0.179 0.017-0.367 0.034-0.563 0.051-4.975 0.405-11.9 0.439-24.55 0.439h-76.8c-12.651 0-19.575-0.034-24.55-0.439-0.196-0.017-0.384-0.034-0.563-0.051z" />
<glyph unicode="&#xe940;" glyph-name="tb-arrow-up-from-arc" d="M481.83 862.17c16.661 16.662 43.678 16.662 60.339 0l170.667-170.667c16.661-16.663 16.661-43.677 0-60.34s-43.678-16.662-60.339 0l-97.83 97.83v-408.994c0-23.565-19.102-42.667-42.667-42.667s-42.667 19.102-42.667 42.667v408.994l-97.83-97.83c-16.663-16.662-43.677-16.662-60.34 0s-16.662 43.677 0 60.34l170.667 170.667zM128 533.333c23.564 0 42.667-19.102 42.667-42.667v-42.667c0-188.514 152.82-341.333 341.333-341.333s341.333 152.819 341.333 341.333v42.667c0 23.565 19.102 42.667 42.667 42.667s42.667-19.102 42.667-42.667v-42.667c0-235.639-191.027-426.667-426.667-426.667-235.642 0-426.667 191.027-426.667 426.667v42.667c0 23.565 19.103 42.667 42.667 42.667z" />
<glyph unicode="&#xe941;" glyph-name="tb-arrow-up-from-bracket" d="M481.83 862.17c16.661 16.662 43.678 16.662 60.339 0l170.667-170.667c16.661-16.663 16.661-43.677 0-60.34s-43.678-16.662-60.339 0l-97.83 97.83v-408.994c0-23.565-19.102-42.667-42.667-42.667s-42.667 19.102-42.667 42.667v408.994l-97.83-97.83c-16.663-16.662-43.677-16.662-60.34 0s-16.663 43.677 0 60.34l170.667 170.667zM128 533.333c23.564 0 42.667-19.102 42.667-42.667v-290.099c0-24.602 0.033-40.482 1.021-52.574 0.947-11.588 2.554-15.889 3.63-17.997 4.090-8.030 10.618-14.558 18.646-18.645 2.11-1.075 6.407-2.684 17.998-3.631 12.089-0.986 27.973-1.020 52.572-1.020h494.933c24.602 0 40.482 0.034 52.574 1.020 11.588 0.947 15.885 2.556 17.997 3.631 8.030 4.087 14.554 10.615 18.645 18.645 1.075 2.108 2.684 6.409 3.631 17.997 0.986 12.092 1.020 27.972 1.020 52.574v290.099c0 23.565 19.102 42.667 42.667 42.667s42.667-19.102 42.667-42.667v-291.746c0-22.49 0-41.894-1.306-57.873-1.378-16.87-4.42-33.647-12.646-49.792-12.271-24.085-31.851-43.665-55.936-55.936-16.145-8.226-32.922-11.268-49.792-12.646-15.979-1.31-35.383-1.306-57.873-1.306h-498.225c-22.491 0-41.894-0.004-57.876 1.306-16.868 1.378-33.645 4.42-49.789 12.646-24.085 12.271-43.666 31.851-55.938 55.936-8.226 16.145-11.269 32.922-12.647 49.792-1.306 15.979-1.305 35.383-1.304 57.873v291.746c0 23.565 19.103 42.667 42.667 42.667z" />
<glyph unicode="&#xe942;" glyph-name="tb-arrow-up-from-square" d="M481.83 819.503c16.661 16.662 43.678 16.662 60.339 0l128-128c16.661-16.663 16.661-43.677 0-60.34s-43.678-16.662-60.339 0l-55.164 55.164v-408.994c0-23.565-19.102-42.667-42.667-42.667s-42.667 19.102-42.667 42.667v408.994l-55.163-55.164c-16.663-16.662-43.677-16.662-60.34 0s-16.663 43.677 0 60.34l128 128zM262.889 576h35.778c23.564 0 42.667-19.103 42.667-42.667s-19.102-42.667-42.667-42.667h-34.133c-24.599 0-40.483-0.034-52.572-1.020-11.591-0.947-15.888-2.556-17.998-3.631-8.028-4.092-14.555-10.615-18.646-18.645-1.075-2.112-2.683-6.409-3.63-17.997-0.988-12.092-1.021-27.972-1.021-52.574v-153.6c0-24.602 0.033-40.482 1.021-52.574 0.947-11.588 2.554-15.885 3.63-17.997 4.090-8.030 10.618-14.554 18.646-18.645 2.11-1.075 6.407-2.684 17.998-3.631 12.089-0.986 27.973-1.020 52.572-1.020h494.933c24.602 0 40.482 0.034 52.574 1.020 11.588 0.947 15.885 2.556 17.997 3.631 8.030 4.092 14.554 10.615 18.645 18.645 1.075 2.112 2.684 6.409 3.631 17.997 0.986 12.092 1.020 27.972 1.020 52.574v153.6c0 24.602-0.034 40.482-1.020 52.574-0.947 11.588-2.556 15.885-3.631 17.997-4.092 8.030-10.615 14.554-18.645 18.645-2.112 1.075-6.409 2.684-17.997 3.631-12.092 0.986-27.972 1.020-52.574 1.020h-34.133c-23.565 0-42.667 19.102-42.667 42.667s19.102 42.667 42.667 42.667h35.776c22.494 0.001 41.899 0.001 57.877-1.304 16.87-1.378 33.647-4.421 49.792-12.647 24.085-12.272 43.665-31.852 55.936-55.937 8.226-16.145 11.268-32.922 12.646-49.792 1.306-15.979 1.306-35.383 1.306-57.873v-156.894c0-22.49 0-41.894-1.306-57.873-1.378-16.87-4.42-33.647-12.646-49.792-12.271-24.085-31.851-43.665-55.936-55.936-16.145-8.226-32.922-11.268-49.792-12.646-15.979-1.306-35.383-1.306-57.873-1.306h-498.225c-22.491 0-41.894 0-57.876 1.306-16.868 1.378-33.645 4.42-49.789 12.646-24.085 12.271-43.666 31.851-55.938 55.936-8.226 16.145-11.269 32.922-12.647 49.792-1.306 15.979-1.305 35.383-1.304 57.877v156.885c-0.001 22.494-0.001 41.899 1.304 57.877 1.378 16.87 4.421 33.647 12.647 49.792 12.272 24.085 31.853 43.665 55.938 55.937 16.144 8.226 32.922 11.269 49.789 12.647 15.982 1.306 35.385 1.305 57.877 1.304z" />
<glyph unicode="&#xe943;" glyph-name="tb-arrow-up-left" d="M256 661.333c0 23.564 19.103 42.667 42.667 42.667h384c23.565 0 42.667-19.103 42.667-42.667s-19.102-42.667-42.667-42.667h-280.994l353.83-353.83c16.661-16.661 16.661-43.678 0-60.339s-43.678-16.661-60.339 0l-353.83 353.83v-280.994c0-23.565-19.103-42.667-42.667-42.667s-42.667 19.102-42.667 42.667v384z" />
<glyph unicode="&#xe944;" glyph-name="tb-arrow-up-right-from-square" d="M661.333 746.667c-23.565 0-42.667 19.103-42.667 42.667s19.102 42.667 42.667 42.667h192c23.565 0 42.667-19.103 42.667-42.667v-192c0-23.564-19.102-42.667-42.667-42.667s-42.667 19.103-42.667 42.667v88.994l-268.497-268.497c-16.661-16.661-43.678-16.661-60.339 0s-16.661 43.678 0 60.339l268.497 268.497h-88.994zM305.556 789.333h185.111c23.565 0 42.667-19.103 42.667-42.667s-19.102-42.667-42.667-42.667h-183.467c-24.599 0-40.483-0.033-52.572-1.021-11.591-0.947-15.888-2.554-17.998-3.629-8.028-4.091-14.555-10.618-18.646-18.646-1.075-2.109-2.683-6.407-3.63-17.998-0.988-12.089-1.021-27.973-1.021-52.572v-366.933c0-24.602 0.033-40.482 1.021-52.574 0.947-11.588 2.554-15.885 3.63-17.997 4.090-8.030 10.618-14.554 18.646-18.645 2.11-1.075 6.407-2.684 17.998-3.631 12.089-0.986 27.973-1.020 52.572-1.020h366.933c24.602 0 40.482 0.034 52.574 1.020 11.588 0.947 15.885 2.556 17.997 3.631 8.030 4.092 14.554 10.615 18.645 18.645 1.075 2.112 2.684 6.409 3.631 17.997 0.986 12.092 1.020 27.972 1.020 52.574v183.467c0 23.565 19.102 42.667 42.667 42.667s42.667-19.102 42.667-42.667v-185.114c0-22.49 0-41.894-1.306-57.873-1.378-16.87-4.42-33.647-12.646-49.792-12.271-24.085-31.851-43.665-55.936-55.936-16.145-8.226-32.922-11.268-49.792-12.646-15.979-1.306-35.383-1.306-57.873-1.306h-370.225c-22.491 0-41.894 0-57.876 1.306-16.868 1.378-33.645 4.42-49.789 12.646-24.085 12.271-43.666 31.851-55.938 55.936-8.226 16.145-11.269 32.922-12.647 49.792-1.306 15.979-1.305 35.383-1.304 57.877v370.22c-0.001 22.492-0.001 41.895 1.304 57.877 1.378 16.868 4.421 33.645 12.647 49.789 12.272 24.085 31.853 43.666 55.938 55.938 16.144 8.226 32.922 11.269 49.789 12.647 15.982 1.306 35.385 1.305 57.877 1.304z" />
<glyph unicode="&#xe945;" glyph-name="tb-arrow-up-right" d="M298.667 661.333c0 23.564 19.103 42.667 42.667 42.667h384c23.565 0 42.667-19.103 42.667-42.667v-384c0-23.565-19.102-42.667-42.667-42.667s-42.667 19.102-42.667 42.667v280.994l-353.83-353.83c-16.663-16.661-43.677-16.661-60.34 0s-16.662 43.678 0 60.339l353.831 353.83h-280.994c-23.564 0-42.667 19.103-42.667 42.667z" />
<glyph unicode="&#xe946;" glyph-name="tb-arrow-up" d="M481.83 776.837c16.661 16.662 43.678 16.662 60.339 0l256-256c16.661-16.661 16.661-43.678 0-60.339s-43.678-16.661-60.339 0l-183.164 183.163v-494.327c0-23.565-19.102-42.667-42.667-42.667s-42.667 19.102-42.667 42.667v494.327l-183.163-183.163c-16.663-16.661-43.677-16.661-60.34 0s-16.662 43.678 0 60.339l256 256z" />
<glyph unicode="&#xe947;" glyph-name="tb-arrows-left-right" d="M328.837 648.837c16.662-16.663 16.662-43.677 0-60.34l-97.83-97.83h561.988l-97.83 97.83c-16.661 16.663-16.661 43.677 0 60.34s43.678 16.662 60.339 0l170.667-170.667c16.661-16.661 16.661-43.678 0-60.339l-170.667-170.667c-16.661-16.661-43.678-16.661-60.339 0s-16.661 43.678 0 60.339l97.83 97.83h-561.988l97.83-97.83c16.662-16.661 16.662-43.678 0-60.339s-43.677-16.661-60.34 0l-170.667 170.667c-16.662 16.661-16.662 43.678 0 60.339l170.667 170.667c16.663 16.662 43.677 16.662 60.34 0z" />
<glyph unicode="&#xe948;" glyph-name="tb-arrows-up-down" d="M512 874.667c11.315 0 22.17-4.495 30.17-12.497l170.667-170.667c16.661-16.663 16.661-43.677 0-60.34s-43.678-16.662-60.339 0l-97.83 97.83v-561.988l97.83 97.83c16.661 16.661 43.678 16.661 60.339 0s16.661-43.678 0-60.339l-170.667-170.667c-8-8-18.854-12.497-30.17-12.497s-22.17 4.497-30.17 12.497l-170.667 170.667c-16.662 16.661-16.662 43.678 0 60.339s43.677 16.661 60.34 0l97.83-97.83v561.988l-97.83-97.83c-16.663-16.662-43.677-16.662-60.34 0s-16.662 43.677 0 60.34l170.667 170.667c8 8.001 18.854 12.497 30.17 12.497z" />
<glyph unicode="&#xe949;" glyph-name="tb-at-sign" d="M512 789.333c-188.513 0-341.333-152.82-341.333-341.333s152.82-341.333 341.333-341.333c76.907 0 147.759 25.382 204.809 68.245 18.837 14.153 45.585 10.355 59.742-8.482 14.153-18.842 10.355-45.585-8.482-59.742-71.322-53.585-160.047-85.355-256.068-85.355-235.642 0-426.667 191.027-426.667 426.667 0 235.642 191.025 426.667 426.667 426.667 235.639 0 426.667-191.025 426.667-426.667v-64c0-82.475-66.859-149.333-149.333-149.333-51.379 0-96.7 25.95-123.571 65.455-38.81-40.346-93.355-65.455-153.762-65.455-117.821 0-213.333 95.514-213.333 213.333s95.513 213.333 213.333 213.333c48.026 0 92.343-15.869 128-42.651 0.009 23.557 19.106 42.651 42.667 42.651 23.565 0 42.667-19.103 42.667-42.667v-234.667c0-35.345 28.655-64 64-64s64 28.655 64 64v64c0 188.513-152.819 341.333-341.333 341.333zM640 448c0 70.694-57.306 128-128 128s-128-57.306-128-128c0-70.694 57.306-128 128-128s128 57.306 128 128z" />
<glyph unicode="&#xe94a;" glyph-name="tb-ban" d="M302.69 717.649l478.959-478.959c44.958 57.818 71.684 130.415 71.684 209.31 0 188.513-152.819 341.333-341.333 341.333-78.895 0-151.493-26.728-209.31-71.684zM721.31 178.351l-478.959 478.959c-44.956-57.817-71.684-130.415-71.684-209.31 0-188.514 152.82-341.333 341.333-341.333 78.895 0 151.492 26.726 209.31 71.684zM210.301 749.699c77.165 77.165 183.89 124.968 301.699 124.968 235.639 0 426.667-191.025 426.667-426.667 0-117.807-47.804-224.533-124.966-301.7-77.167-77.163-183.893-124.966-301.7-124.966-235.642 0-426.667 191.027-426.667 426.667 0 117.809 47.803 224.534 124.968 301.699z" />
<glyph unicode="&#xe94b;" glyph-name="tb-bars-progress" d="M194.906 789.333c0.453 0 0.907 0 1.361 0h632.827c10.769 0.001 21.257 0.003 30.135-0.723 9.754-0.797 21.265-2.677 32.845-8.578 16.055-8.181 29.111-21.236 37.291-37.292 5.901-11.581 7.782-23.089 8.58-32.843 0.725-8.881 0.721-19.368 0.721-30.136v-79.523c0-10.768 0.004-21.255-0.721-30.136-0.798-9.753-2.679-21.262-8.58-32.843-8.179-16.056-21.235-29.112-37.291-37.291-11.58-5.901-23.091-7.782-32.845-8.58-8.879-0.725-19.366-0.721-30.135-0.721h-632.827c-0.454 0-0.908 0-1.361 0-10.769 0-21.256-0.004-30.137 0.721-9.754 0.798-21.262 2.679-32.843 8.58-16.056 8.179-29.111 21.235-37.292 37.291-5.901 11.581-7.781 23.089-8.578 32.843-0.726 8.881-0.724 19.369-0.723 30.137 0 0.453 0 0.907 0 1.361v76.8c0 0.454 0 0.908 0 1.361-0.001 10.769-0.003 21.256 0.723 30.137 0.797 9.754 2.677 21.262 8.578 32.843 8.181 16.056 21.236 29.111 37.292 37.292 11.581 5.901 23.089 7.781 32.843 8.578 8.881 0.726 19.368 0.724 30.137 0.723zM682.667 576h145.067c12.651 0 19.575 0.033 24.55 0.44 0.196 0.016 0.384 0.033 0.563 0.049 0.013 0.177 0.030 0.364 0.047 0.562 0.405 4.974 0.439 11.897 0.439 24.549v76.8c0 12.652-0.034 19.575-0.439 24.549-0.017 0.198-0.034 0.386-0.051 0.563-0.175 0.016-0.363 0.032-0.559 0.049-4.975 0.407-11.9 0.439-24.55 0.439h-145.067v-128zM597.333 704v-128h-401.066c-12.652 0-19.575 0.033-24.549 0.44-0.198 0.016-0.386 0.032-0.563 0.049-0.016 0.177-0.032 0.365-0.049 0.563-0.407 4.974-0.439 11.897-0.439 24.549v76.8c0 12.652 0.033 19.575 0.439 24.549 0.016 0.198 0.032 0.386 0.049 0.563 0.177 0.016 0.365 0.032 0.563 0.049 4.974 0.407 11.897 0.439 24.549 0.439h401.066zM194.906 405.333c0.453 0 0.907 0 1.361 0h632.827c10.769 0 21.257 0.004 30.135-0.721 9.754-0.798 21.265-2.679 32.845-8.58 16.055-8.179 29.111-21.235 37.291-37.291 5.901-11.58 7.782-23.091 8.58-32.845 0.725-8.879 0.721-19.366 0.721-30.135v-79.522c0-10.769 0.004-21.257-0.721-30.135-0.798-9.754-2.679-21.265-8.58-32.845-8.179-16.055-21.235-29.111-37.291-37.291-11.58-5.901-23.091-7.782-32.845-8.58-8.879-0.725-19.366-0.721-30.135-0.721h-634.188c-10.768 0-21.256-0.004-30.137 0.721-9.754 0.798-21.262 2.679-32.843 8.58-16.056 8.179-29.111 21.235-37.292 37.291-5.901 11.58-7.781 23.091-8.578 32.845-0.726 8.879-0.724 19.366-0.723 30.135v79.522c-0.001 10.769-0.003 21.257 0.723 30.135 0.797 9.754 2.677 21.265 8.578 32.845 8.181 16.055 21.236 29.111 37.292 37.291 11.581 5.901 23.089 7.782 32.843 8.58 8.881 0.725 19.368 0.721 30.137 0.721zM426.667 192h401.067c12.651 0 19.575 0.034 24.55 0.439 0.196 0.017 0.384 0.034 0.563 0.051 0.013 0.175 0.030 0.363 0.047 0.559 0.405 4.975 0.439 11.9 0.439 24.55v76.8c0 12.651-0.034 19.575-0.439 24.55-0.017 0.196-0.034 0.384-0.051 0.559-0.175 0.017-0.363 0.034-0.559 0.051-4.975 0.405-11.9 0.439-24.55 0.439h-401.067v-128zM341.334 320v-128h-145.067c-12.652 0-19.575 0.034-24.549 0.439-0.198 0.017-0.386 0.034-0.563 0.047-0.016 0.179-0.032 0.367-0.049 0.563-0.407 4.975-0.439 11.9-0.439 24.55v76.8c0 12.651 0.033 19.575 0.439 24.55 0.016 0.196 0.032 0.384 0.049 0.559 0.177 0.017 0.365 0.034 0.563 0.051 4.974 0.405 11.897 0.439 24.549 0.439h145.067z" />
<glyph unicode="&#xe94c;" glyph-name="tb-bell-alt-1" d="M301.879 793.21c56.201 52.454 131.832 81.457 210.134 81.457 78.298 0 153.929-29.003 210.129-81.457 56.303-52.547 88.538-124.471 88.538-200.143 0-107.055 26.833-180.262 56.567-228.911l0.465-0.764c16.060-26.278 28.676-46.925 37.163-61.85 4.25-7.471 8.051-14.532 10.846-20.698 1.391-3.068 2.94-6.797 4.151-10.812 0.956-3.183 3.012-10.59 2.223-19.61-0.482-5.538-1.643-15.62-7.458-25.997-5.82-10.372-13.82-16.619-18.291-19.921-6.562-4.843-13.107-7.019-16.606-8.034-4.002-1.156-7.872-1.843-11.063-2.295-6.366-0.896-13.679-1.348-21.175-1.626-14.916-0.55-35.678-0.55-61.666-0.55h-547.649c-25.988 0-46.747 0-61.667 0.55-7.496 0.277-14.809 0.73-21.173 1.626-3.193 0.452-7.060 1.139-11.063 2.295-3.501 1.015-10.046 3.191-16.606 8.034-4.472 3.302-12.473 9.549-18.291 19.921-5.818 10.377-6.976 20.459-7.46 25.997-0.788 9.020 1.265 16.427 2.225 19.61 1.21 4.015 2.758 7.744 4.148 10.812 2.795 6.165 6.599 13.227 10.845 20.698 8.485 14.925 21.101 35.567 37.157 61.837l0.474 0.777c29.732 48.649 56.568 121.856 56.568 228.911 0 75.672 32.235 147.596 88.535 200.143zM512.013 789.333c-57.493 0-112.091-21.344-151.909-58.507-39.718-37.070-61.426-86.694-61.426-137.76 0-122.167-30.866-210.867-69.089-273.412-10.345-16.926-18.861-30.865-25.681-42.257 9.89-0.064 21.568-0.064 35.295-0.064h545.617c13.726 0 25.404 0 35.294 0.064-6.818 11.392-15.334 25.331-25.681 42.257-38.221 62.545-69.086 151.245-69.086 273.412 0 51.066-21.709 100.689-61.427 137.76-39.821 37.164-94.417 58.507-151.906 58.507zM341.344 64c0 23.565 19.103 42.667 42.667 42.667h256.002c23.561 0 42.667-19.102 42.667-42.667s-19.106-42.667-42.667-42.667h-256.002c-23.564 0-42.667 19.102-42.667 42.667z" />
<glyph unicode="&#xe94d;" glyph-name="tb-bell-alt" d="M512 874.667c23.565 0 42.667-19.103 42.667-42.667v-45.702c55.403-7.93 107.529-31.218 148.599-67.727 51.652-45.915 81.801-109.342 81.801-176.705 0-77.308 17.404-133.295 38.613-173.141l0.388-0.73c15.407-28.941 27.426-51.524 35.452-67.686 4.011-8.077 7.518-15.531 10.031-21.862 1.246-3.14 2.607-6.891 3.635-10.846 0.751-2.897 2.658-10.607 1.468-19.823-0.602-4.625-1.95-14.81-8.090-25.037-6.144-10.227-14.498-16.201-18.3-18.906-6.716-4.774-13.385-6.81-16.691-7.71-3.917-1.058-7.718-1.685-10.871-2.099-6.302-0.828-13.636-1.25-21.274-1.51-15.228-0.516-36.51-0.516-63.322-0.516h-448.21c-26.81 0-48.092 0-63.321 0.516-7.639 0.26-14.972 0.683-21.275 1.51-3.153 0.414-6.953 1.041-10.868 2.099-3.311 0.9-9.977 2.935-16.692 7.71-3.802 2.705-12.159 8.678-18.3 18.906s-7.489 20.412-8.089 25.037c-1.194 9.216 0.713 16.926 1.466 19.823 1.027 3.955 2.388 7.706 3.634 10.846 2.514 6.332 6.020 13.786 10.031 21.862 8.026 16.162 20.046 38.746 35.451 67.686l0.387 0.73c21.21 39.846 38.613 95.834 38.613 173.141 0 67.363 30.148 130.79 81.803 176.705 41.071 36.508 93.199 59.796 148.595 67.727v45.702c0 23.564 19.106 42.667 42.667 42.667zM512 704c-51.302 0-99.643-18.162-134.569-49.207-34.762-30.899-53.162-71.656-53.162-112.926 0-90.718-20.577-160.555-48.62-213.239-11.167-20.979-20.143-37.845-27.066-51.204 11.007-0.090 24.308-0.090 40.263-0.090h446.314c15.953 0 29.257 0 40.26 0.090-6.921 13.359-15.898 30.225-27.063 51.204-28.045 52.685-48.623 122.522-48.623 213.239 0 41.27-18.398 82.027-53.158 112.926-34.927 31.045-83.268 49.207-134.575 49.207zM367.117 134.899c15.593 17.668 42.556 19.349 60.224 3.755 22.639-19.977 52.271-32.055 84.834-32.055 32.559 0 62.195 12.079 84.83 32.055 17.668 15.595 44.629 13.914 60.224-3.755 15.595-17.664 13.914-44.629-3.755-60.22-37.628-33.212-87.159-53.414-141.299-53.414-54.144 0-103.674 20.203-141.303 53.414-17.667 15.59-19.348 42.556-3.755 60.22z" />
<glyph unicode="&#xe94e;" glyph-name="tb-bell-slash" d="M97.83 862.17c16.663 16.662 43.677 16.662 60.34 0l768-768c16.661-16.661 16.661-43.678 0-60.339s-43.678-16.661-60.339 0l-158.17 158.17h-24.994c0-94.255-76.412-170.667-170.667-170.667-94.257 0-170.667 76.412-170.667 170.667h-103.158c-25.989 0-46.747 0-61.667 0.55-7.496 0.277-14.809 0.73-21.173 1.626-3.193 0.452-7.060 1.139-11.062 2.295-3.501 1.015-10.046 3.191-16.606 8.034-4.472 3.302-12.473 9.549-18.291 19.921-5.818 10.377-6.976 20.459-7.46 25.997-0.789 9.020 1.265 16.427 2.225 19.61 1.21 4.015 2.758 7.744 4.148 10.812 2.795 6.165 6.599 13.227 10.845 20.698 8.485 14.925 21.101 35.567 37.157 61.837l0.474 0.777c29.732 48.649 56.568 121.856 56.568 228.911 0 27.628 4.303 54.802 12.529 80.731l-128.032 128.032c-16.662 16.663-16.662 43.677 0 60.34zM298.833 600.827c-0.111-2.581-0.167-5.169-0.167-7.76 0-122.167-30.866-210.867-69.089-273.412-10.345-16.926-18.861-30.865-25.681-42.257 9.89-0.064 21.568-0.064 35.296-0.064h383.136l-323.494 323.494zM597.333 192h-170.667c0-47.13 38.204-85.333 85.333-85.333s85.333 38.204 85.333 85.333zM382.482 846.825c40.099 18.187 84.321 27.842 129.518 27.842 78.298 0 153.933-29.003 210.133-81.457 56.299-52.547 88.533-124.471 88.533-200.143 0-70.174 11.533-125.662 27.699-169.109 8.218-22.084-3.021-46.647-25.109-54.865-22.084-8.218-46.647 3.021-54.865 25.105-19.917 53.521-33.058 119.142-33.058 198.869 0 51.066-21.709 100.689-61.427 137.76-39.817 37.164-94.413 58.507-151.906 58.507-33.079 0-65.28-7.073-94.271-20.222-21.46-9.733-46.747-0.227-56.48 21.233s-0.227 46.747 21.233 56.48z" />
<glyph unicode="&#xe94f;" glyph-name="tb-bell" d="M301.879 793.21c56.201 52.454 131.832 81.457 210.134 81.457 78.298 0 153.929-29.003 210.129-81.457 56.303-52.547 88.538-124.471 88.538-200.143 0-107.055 26.833-180.262 56.567-228.911l0.465-0.764c16.060-26.278 28.676-46.925 37.163-61.85 4.25-7.471 8.051-14.532 10.846-20.698 1.391-3.068 2.94-6.797 4.151-10.812 0.956-3.183 3.012-10.59 2.223-19.61-0.482-5.538-1.643-15.62-7.458-25.997-5.82-10.372-13.82-16.619-18.291-19.921-6.562-4.843-13.107-7.019-16.606-8.034-4.002-1.156-7.872-1.843-11.063-2.295-6.366-0.896-13.679-1.348-21.175-1.626-14.916-0.55-35.678-0.55-61.666-0.55h-103.155c0-94.255-76.412-170.667-170.667-170.667-94.259 0-170.669 76.412-170.669 170.667h-103.158c-25.988 0-46.747 0-61.667 0.55-7.496 0.277-14.809 0.73-21.173 1.626-3.193 0.452-7.060 1.139-11.063 2.295-3.501 1.015-10.046 3.191-16.606 8.034-4.472 3.302-12.473 9.549-18.291 19.921-5.818 10.377-6.976 20.459-7.46 25.997-0.788 9.020 1.265 16.427 2.225 19.61 1.21 4.015 2.758 7.744 4.148 10.812 2.795 6.165 6.599 13.227 10.845 20.698 8.486 14.925 21.101 35.567 37.158 61.837l0.473 0.777c29.732 48.649 56.568 121.856 56.568 228.911 0 75.672 32.235 147.596 88.535 200.143zM426.679 191.97c0-0.009 0 0.009 0 0 0.013-47.117 38.212-85.303 85.333-85.303 47.125 0 85.333 38.204 85.333 85.333l-170.667-0.030zM512.013 789.333c-57.493 0-112.091-21.344-151.909-58.507-39.718-37.070-61.426-86.694-61.426-137.76 0-122.167-30.866-210.867-69.089-273.412-10.345-16.926-18.861-30.865-25.681-42.257 9.89-0.064 21.568-0.064 35.295-0.064h545.617c13.726 0 25.404 0 35.294 0.064-6.818 11.392-15.334 25.331-25.681 42.257-38.221 62.545-69.086 151.245-69.086 273.412 0 51.066-21.709 100.689-61.427 137.76-39.821 37.164-94.417 58.507-151.906 58.507z" />
<glyph unicode="&#xe950;" glyph-name="tb-book-user" d="M348.222 874.667c-22.492 0.001-41.895 0.001-57.877-1.304-16.868-1.378-33.645-4.421-49.789-12.647-24.085-12.272-43.666-31.853-55.938-55.938-8.226-16.144-11.269-32.922-12.647-49.789-1.306-15.982-1.305-35.385-1.304-57.877v-547.778c0-70.694 57.308-128 128-128h512c23.565 0 42.667 19.102 42.667 42.667s-19.102 42.667-42.667 42.667v85.333c23.565 0 42.667 19.102 42.667 42.667v462.444c0 22.492 0 41.896-1.306 57.878-1.378 16.868-4.42 33.645-12.646 49.789-12.271 24.085-31.851 43.666-55.936 55.938-16.145 8.226-32.922 11.269-49.792 12.647-15.979 1.306-35.383 1.305-57.877 1.304h-327.554zM256 149.333c0 23.565 19.103 42.667 42.667 42.667h426.667v-85.333h-426.667c-23.564 0-42.667 19.102-42.667 42.667zM768 277.333h-469.333c-14.96 0-29.321-2.569-42.667-7.283v425.417c0 24.599 0.033 40.483 1.021 52.572 0.947 11.591 2.554 15.888 3.63 17.998 4.090 8.028 10.618 14.555 18.646 18.646 2.11 1.075 6.407 2.683 17.998 3.63 12.089 0.988 27.973 1.021 52.572 1.021h324.267c24.602 0 40.482-0.033 52.574-1.021 11.588-0.947 15.885-2.554 17.997-3.63 8.030-4.090 14.554-10.618 18.645-18.646 1.075-2.11 2.684-6.407 3.631-17.998 0.986-12.089 1.020-27.973 1.020-52.572v-418.133zM426.667 640c0-47.128 38.204-85.333 85.333-85.333s85.333 38.205 85.333 85.333c0 47.128-38.204 85.333-85.333 85.333s-85.333-38.205-85.333-85.333zM512 426.667c48.853 0 80.38-27.964 86.592-52.958 5.687-22.869 28.83-36.8 51.699-31.117s36.8 28.83 31.117 51.699c-17.993 72.38-91.883 117.709-169.408 117.709s-151.416-45.329-169.407-117.709c-5.684-22.869 8.247-46.016 31.115-51.699s46.015 8.247 51.699 31.117c6.214 24.994 37.74 52.958 86.593 52.958z" />
<glyph unicode="&#xe951;" glyph-name="tb-book" d="M305.556 874.667c-22.492 0.001-41.895 0.001-57.877-1.304-16.868-1.378-33.645-4.421-49.789-12.647-24.085-12.272-43.666-31.853-55.938-55.938-8.226-16.144-11.269-32.922-12.647-49.789-1.306-15.982-1.305-35.385-1.304-57.877v-547.778c0-70.694 57.308-128 128-128h597.333c23.565 0 42.667 19.102 42.667 42.667s-19.102 42.667-42.667 42.667v85.333c23.565 0 42.667 19.102 42.667 42.667v462.445c0 22.491 0 41.894-1.306 57.876-1.378 16.868-4.42 33.645-12.646 49.789-12.271 24.085-31.851 43.666-55.936 55.938-16.145 8.226-32.922 11.269-49.792 12.647-15.979 1.306-35.383 1.305-57.877 1.304h-412.887zM213.333 149.333c0 23.565 19.103 42.667 42.667 42.667h512v-85.333h-512c-23.564 0-42.667 19.102-42.667 42.667zM810.667 277.333h-554.667c-14.96 0-29.321-2.569-42.667-7.283v425.417c0 24.599 0.033 40.483 1.021 52.572 0.947 11.591 2.554 15.888 3.63 17.998 4.090 8.028 10.618 14.555 18.646 18.646 2.11 1.075 6.407 2.683 17.998 3.63 12.089 0.988 27.973 1.021 52.572 1.021h409.6c24.602 0 40.482-0.033 52.574-1.021 11.588-0.947 15.885-2.554 17.997-3.63 8.030-4.090 14.554-10.618 18.645-18.646 1.075-2.109 2.684-6.407 3.631-17.998 0.986-12.089 1.020-27.973 1.020-52.572v-418.133zM341.333 661.333c0-23.564 19.103-42.667 42.667-42.667h256c23.565 0 42.667 19.102 42.667 42.667s-19.102 42.667-42.667 42.667h-256c-23.564 0-42.667-19.103-42.667-42.667zM341.333 490.667c0-23.565 19.103-42.667 42.667-42.667h256c23.565 0 42.667 19.102 42.667 42.667s-19.102 42.667-42.667 42.667h-256c-23.564 0-42.667-19.102-42.667-42.667z" />
<glyph unicode="&#xe952;" glyph-name="tb-briefcase-alt-2" d="M476.224 874.667h71.552c22.494 0.001 41.899 0.001 57.877-1.304 16.87-1.378 33.647-4.421 49.792-12.647 24.085-12.272 43.665-31.853 55.936-55.938 8.226-16.144 11.268-32.922 12.646-49.789 1.173-14.344 1.293-31.443 1.306-51.057 20.288-0.14 38.016-0.559 53.41-1.816 23.983-1.959 46.029-6.165 66.739-16.716 32.111-16.362 58.219-42.471 74.581-74.584 11.857-23.265 15.753-48.371 17.37-76.122 1.233-21.161 1.233-46.667 1.233-76.973v-190.682c0-34.347 0-62.69-1.886-85.781-1.958-23.983-6.165-46.029-16.717-66.739-16.363-32.111-42.47-58.219-74.581-74.581-20.71-10.551-42.756-14.758-66.739-16.717-23.091-1.886-51.435-1.886-85.781-1.886h-361.925c-34.345 0-62.691 0-85.782 1.886-23.983 1.958-46.029 6.165-66.736 16.717-32.113 16.363-58.222 42.47-74.584 74.581-10.551 20.71-14.756 42.756-16.716 66.739-1.886 23.091-1.886 51.435-1.885 85.781v190.682c0 30.306 0 55.812 1.233 76.973 1.618 27.75 5.514 52.856 17.368 76.122 16.363 32.113 42.471 58.222 74.584 74.584 20.707 10.551 42.754 14.757 66.736 16.716 15.395 1.258 33.126 1.677 53.413 1.816 0.012 19.615 0.131 36.714 1.303 51.057 1.378 16.868 4.421 33.645 12.647 49.789 12.272 24.085 31.853 43.666 55.938 55.938 16.144 8.226 32.922 11.269 49.789 12.647 15.98 1.306 35.385 1.305 57.879 1.304zM332.8 618.667c-36.547 0-61.392-0.033-80.596-1.602-18.706-1.528-28.272-4.299-34.945-7.699-16.056-8.181-29.111-21.236-37.292-37.292-2.578-5.059-4.756-11.689-6.33-22.554 18.787-16.234 53.446-43.98 98.982-70.873 21.068-12.446 44.122-24.503 68.715-35.123v4.476c0 23.565 19.103 42.667 42.667 42.667s42.667-19.102 42.667-42.667v-32.73c27.533-6.272 56.128-9.937 85.333-9.937s57.801 3.665 85.333 9.937v32.73c0 23.565 19.102 42.667 42.667 42.667s42.667-19.102 42.667-42.667v-4.476c24.593 10.62 47.646 22.677 68.715 35.123 45.534 26.893 80.192 54.639 98.982 70.873-1.574 10.865-3.755 17.494-6.332 22.554-8.179 16.056-21.235 29.111-37.291 37.292-6.673 3.4-16.239 6.17-34.944 7.699-19.204 1.569-44.049 1.602-80.597 1.602h-358.4zM639.996 704h-255.993c0.019 19.844 0.149 33.409 1.018 44.039 0.947 11.591 2.554 15.888 3.629 17.998 4.091 8.028 10.618 14.555 18.646 18.646 2.109 1.075 6.407 2.683 17.998 3.63 12.090 0.988 27.971 1.021 52.572 1.021h68.267c24.602 0 40.482-0.033 52.574-1.021 11.588-0.947 15.885-2.554 17.997-3.63 8.030-4.090 14.554-10.618 18.645-18.646 1.075-2.11 2.684-6.407 3.631-17.998 0.866-10.63 0.998-24.195 1.015-44.039zM853.333 443.422c-17.028-12.228-36.681-25.331-58.556-38.251-32.329-19.093-70.174-38.191-112.111-53.449v-31.723c0-23.565-19.102-42.667-42.667-42.667s-42.667 19.102-42.667 42.667v8.124c-27.439-5.154-55.983-8.124-85.333-8.124s-57.894 2.97-85.333 8.124v-8.124c0-23.565-19.102-42.667-42.667-42.667s-42.667 19.102-42.667 42.667v31.723c-41.936 15.258-79.781 34.355-112.111 53.449-21.876 12.919-41.529 26.022-58.556 38.251v-174.622c0-36.548 0.033-61.393 1.602-80.597 1.528-18.705 4.299-28.271 7.699-34.944 8.181-16.055 21.236-29.111 37.292-37.291 6.673-3.401 16.239-6.17 34.945-7.701 19.204-1.566 44.048-1.6 80.596-1.6h358.4c36.548 0 61.393 0.034 80.597 1.6 18.705 1.532 28.271 4.301 34.944 7.701 16.055 8.179 29.111 21.235 37.291 37.291 3.401 6.673 6.17 16.239 7.697 34.944 1.57 19.204 1.604 44.049 1.604 80.597v174.622z" />
<glyph unicode="&#xe953;" glyph-name="tb-briefcase-alt-3" d="M476.224 874.667h71.552c22.494 0.001 41.899 0.001 57.877-1.304 16.87-1.378 33.647-4.421 49.792-12.647 24.085-12.272 43.665-31.853 55.936-55.938 8.226-16.144 11.268-32.922 12.646-49.789 1.173-14.344 1.293-31.443 1.306-51.057 19.571-0.135 36.74-0.529 51.708-1.681 24.653-1.898 47.258-6.058 68.442-16.851 32.111-16.362 58.219-42.471 74.581-74.584 10.795-21.183 14.955-43.785 16.853-68.439 1.749-22.746 1.749-50.582 1.749-84.195v-191.027c0-33.613 0-61.449-1.749-84.194-1.899-24.653-6.059-47.258-16.853-68.442-16.363-32.111-42.47-58.219-74.581-74.581-21.184-10.795-43.789-14.955-68.442-16.853-22.746-1.749-50.581-1.749-84.194-1.749h-361.693c-33.612 0-61.449 0-84.195 1.749-24.654 1.899-47.257 6.059-68.439 16.853-32.113 16.363-58.222 42.47-74.584 74.581-10.793 21.184-14.953 43.789-16.851 68.442-1.751 22.746-1.751 50.581-1.751 84.198v191.019c0 33.617-0.001 61.453 1.751 84.199 1.898 24.654 6.058 47.256 16.851 68.439 16.363 32.113 42.471 58.222 74.584 74.584 21.182 10.793 43.785 14.953 68.439 16.851 14.967 1.152 32.139 1.546 51.71 1.681 0.012 19.614 0.131 36.714 1.303 51.057 1.378 16.868 4.421 33.645 12.647 49.789 12.272 24.085 31.853 43.666 55.938 55.938 16.144 8.226 32.922 11.269 49.789 12.647 15.98 1.306 35.385 1.305 57.879 1.304zM231.236 614.15c-6.087-1.356-10.436-2.98-13.977-4.784-16.056-8.181-29.111-21.236-37.292-37.292-1.804-3.541-3.428-7.889-4.784-13.977 5.159-2.214 10.838-3.43 16.817-3.43 23.564 0 42.667 19.102 42.667 42.667 0 5.979-1.217 11.658-3.43 16.817zM170.673 471.108c-0.006-4.646-0.006-9.498-0.006-14.575v-187.733c0-5.077 0-9.929 0.006-14.575 6.937 1.169 14.063 1.775 21.327 1.775 70.692 0 128-57.306 128-128 0-7.266-0.607-14.391-1.773-21.329 4.643-0.004 9.495-0.004 14.573-0.004h358.4c5.077 0 9.929 0 14.575 0.004-1.169 6.938-1.775 14.063-1.775 21.329 0 70.694 57.306 128 128 128 7.266 0 14.391-0.606 21.329-1.775 0.004 4.646 0.004 9.498 0.004 14.575v187.733c0 5.077 0 9.929-0.004 14.575-6.938-1.169-14.063-1.775-21.329-1.775-70.694 0-128 57.306-128 128 0 7.265 0.606 14.39 1.775 21.327-4.646 0.005-9.498 0.006-14.575 0.006h-358.4c-5.078 0-9.93-0.001-14.573-0.006 1.166-6.937 1.773-14.063 1.773-21.327 0-70.694-57.308-128-128-128-7.265 0-14.39 0.606-21.327 1.775zM639.996 704h-255.993c0.019 19.844 0.149 33.409 1.018 44.039 0.947 11.591 2.554 15.888 3.629 17.998 4.091 8.028 10.618 14.555 18.646 18.646 2.109 1.075 6.407 2.683 17.998 3.63 12.090 0.988 27.971 1.021 52.572 1.021h68.267c24.602 0 40.482-0.033 52.574-1.021 11.588-0.947 15.885-2.554 17.997-3.63 8.030-4.090 14.554-10.618 18.645-18.646 1.075-2.11 2.684-6.407 3.631-17.998 0.866-10.63 0.998-24.195 1.015-44.039zM792.764 614.15c-2.214-5.159-3.43-10.838-3.43-16.817 0-23.564 19.102-42.667 42.667-42.667 5.978 0 11.657 1.217 16.815 3.43-1.353 6.087-2.978 10.436-4.783 13.977-8.179 16.056-21.235 29.111-37.291 37.292-3.541 1.804-7.889 3.428-13.978 4.784zM848.815 167.236c-5.158 2.214-10.837 3.43-16.815 3.43-23.565 0-42.667-19.102-42.667-42.667 0-5.978 1.216-11.657 3.43-16.815 6.089 1.353 10.436 2.978 13.978 4.783 16.055 8.179 29.111 21.235 37.291 37.291 1.805 3.541 3.43 7.889 4.783 13.978zM231.236 111.185c2.214 5.158 3.43 10.837 3.43 16.815 0 23.565-19.102 42.667-42.667 42.667-5.979 0-11.658-1.216-16.817-3.43 1.356-6.089 2.98-10.436 4.784-13.978 8.181-16.055 21.236-29.111 37.292-37.291 3.541-1.805 7.889-3.43 13.977-4.783zM512 405.333c-23.565 0-42.667-19.102-42.667-42.667s19.102-42.667 42.667-42.667c23.565 0 42.667 19.102 42.667 42.667s-19.102 42.667-42.667 42.667zM384 362.667c0 70.694 57.306 128 128 128s128-57.306 128-128c0-70.694-57.306-128-128-128s-128 57.306-128 128z" />
</font>
</defs>
</svg>
